<svg width="628" height="396" viewBox="0 0 628 396" fill="none" xmlns="http://www.w3.org/2000/svg">
<rect width="628" height="396" fill="white"/>
<rect x="46.5" y="183.5" width="172" height="103" rx="4.5" fill="white" stroke="#FF491D"/>
<rect x="52.5" y="190.5" width="172" height="103" rx="4.5" fill="white" stroke="#FF491D"/>
<rect x="409.5" y="266.5" width="172" height="69" rx="4.5" fill="white" stroke="#0E65DA"/>
<rect x="297.5" y="164.5" width="172" height="69" rx="4.5" fill="white" stroke="#0E65DA"/>
<path d="M332.307 191.455H334.068V201.085C334.068 202.08 333.834 202.967 333.365 203.749C332.901 204.525 332.245 205.138 331.398 205.588C330.55 206.033 329.556 206.256 328.415 206.256C327.274 206.256 326.279 206.033 325.432 205.588C324.584 205.138 323.926 204.525 323.457 203.749C322.993 202.967 322.761 202.08 322.761 201.085V191.455H324.523V200.943C324.523 201.653 324.679 202.286 324.991 202.839C325.304 203.389 325.749 203.822 326.327 204.139C326.909 204.452 327.605 204.608 328.415 204.608C329.224 204.608 329.92 204.452 330.503 204.139C331.085 203.822 331.53 203.389 331.838 202.839C332.151 202.286 332.307 201.653 332.307 200.943V191.455ZM345.086 197.534L343.58 197.96C343.485 197.709 343.346 197.465 343.161 197.229C342.981 196.987 342.735 196.788 342.422 196.632C342.11 196.476 341.71 196.398 341.222 196.398C340.554 196.398 339.998 196.552 339.553 196.859C339.113 197.162 338.892 197.548 338.892 198.017C338.892 198.434 339.044 198.763 339.347 199.004C339.65 199.246 340.123 199.447 340.767 199.608L342.387 200.006C343.362 200.242 344.089 200.605 344.567 201.092C345.045 201.575 345.284 202.198 345.284 202.96C345.284 203.585 345.105 204.144 344.745 204.636C344.39 205.129 343.892 205.517 343.253 205.801C342.614 206.085 341.871 206.227 341.023 206.227C339.91 206.227 338.989 205.986 338.26 205.503C337.531 205.02 337.069 204.314 336.875 203.386L338.466 202.989C338.618 203.576 338.904 204.016 339.326 204.31C339.752 204.603 340.308 204.75 340.995 204.75C341.776 204.75 342.396 204.584 342.855 204.253C343.319 203.917 343.551 203.514 343.551 203.045C343.551 202.667 343.419 202.349 343.154 202.094C342.889 201.833 342.481 201.639 341.932 201.511L340.114 201.085C339.115 200.848 338.381 200.482 337.912 199.984C337.448 199.482 337.216 198.855 337.216 198.102C337.216 197.487 337.389 196.942 337.735 196.469C338.085 195.995 338.561 195.624 339.162 195.354C339.768 195.084 340.455 194.949 341.222 194.949C342.301 194.949 343.149 195.186 343.765 195.659C344.385 196.133 344.825 196.758 345.086 197.534ZM352.381 206.227C351.33 206.227 350.424 205.995 349.661 205.531C348.904 205.062 348.319 204.409 347.907 203.571C347.5 202.728 347.296 201.748 347.296 200.631C347.296 199.513 347.5 198.528 347.907 197.676C348.319 196.819 348.892 196.152 349.626 195.673C350.364 195.19 351.226 194.949 352.211 194.949C352.779 194.949 353.34 195.044 353.894 195.233C354.448 195.422 354.952 195.73 355.407 196.156C355.862 196.578 356.224 197.136 356.494 197.832C356.763 198.528 356.898 199.385 356.898 200.403V201.114H348.489V199.665H355.194C355.194 199.049 355.071 198.5 354.825 198.017C354.583 197.534 354.237 197.153 353.788 196.874C353.343 196.594 352.817 196.455 352.211 196.455C351.543 196.455 350.966 196.62 350.478 196.952C349.995 197.278 349.623 197.705 349.363 198.23C349.103 198.756 348.972 199.319 348.972 199.92V200.886C348.972 201.71 349.114 202.409 349.398 202.982C349.687 203.55 350.087 203.983 350.599 204.281C351.11 204.575 351.704 204.722 352.381 204.722C352.822 204.722 353.219 204.66 353.575 204.537C353.934 204.409 354.245 204.22 354.505 203.969C354.765 203.713 354.967 203.396 355.109 203.017L356.728 203.472C356.558 204.021 356.271 204.504 355.869 204.92C355.466 205.332 354.969 205.654 354.377 205.886C353.785 206.114 353.12 206.227 352.381 206.227ZM359.448 206V195.091H361.067V196.739H361.181C361.38 196.199 361.74 195.761 362.261 195.425C362.781 195.089 363.369 194.92 364.022 194.92C364.145 194.92 364.299 194.923 364.484 194.928C364.668 194.932 364.808 194.939 364.903 194.949V196.653C364.846 196.639 364.716 196.618 364.512 196.589C364.313 196.556 364.103 196.54 363.88 196.54C363.35 196.54 362.876 196.651 362.46 196.874C362.048 197.091 361.721 197.394 361.479 197.783C361.243 198.166 361.124 198.604 361.124 199.097V206H359.448Z" fill="black"/>
<rect x="409.5" y="60.5" width="172" height="69" rx="4.5" fill="white" stroke="#0E65DA"/>
<path d="M442.716 91.0909C442.631 90.3712 442.285 89.8125 441.679 89.4148C441.073 89.017 440.33 88.8182 439.449 88.8182C438.805 88.8182 438.241 88.9223 437.759 89.1307C437.28 89.339 436.906 89.6255 436.636 89.9901C436.371 90.3546 436.239 90.7689 436.239 91.233C436.239 91.6212 436.331 91.955 436.516 92.2344C436.705 92.509 436.946 92.7386 437.24 92.9233C437.534 93.1032 437.841 93.2524 438.163 93.3707C438.485 93.4844 438.781 93.5767 439.051 93.6477L440.528 94.0455C440.907 94.1449 441.329 94.2822 441.793 94.4574C442.261 94.6326 442.709 94.8717 443.135 95.1747C443.566 95.473 443.921 95.8565 444.2 96.3253C444.48 96.794 444.619 97.3693 444.619 98.0511C444.619 98.8371 444.413 99.5473 444.001 100.182C443.594 100.816 442.998 101.321 442.212 101.695C441.43 102.069 440.481 102.256 439.364 102.256C438.322 102.256 437.42 102.088 436.658 101.751C435.9 101.415 435.304 100.946 434.868 100.345C434.437 99.7438 434.193 99.0455 434.136 98.25H435.955C436.002 98.7992 436.187 99.2538 436.509 99.6136C436.835 99.9687 437.247 100.234 437.744 100.409C438.246 100.58 438.786 100.665 439.364 100.665C440.036 100.665 440.64 100.556 441.175 100.338C441.71 100.116 442.134 99.8078 442.446 99.4148C442.759 99.017 442.915 98.553 442.915 98.0227C442.915 97.5398 442.78 97.1468 442.51 96.8438C442.24 96.5407 441.885 96.2945 441.445 96.1051C441.004 95.9157 440.528 95.75 440.017 95.608L438.227 95.0966C437.091 94.7699 436.191 94.3035 435.528 93.6974C434.866 93.0914 434.534 92.2983 434.534 91.3182C434.534 90.5038 434.754 89.7936 435.195 89.1875C435.64 88.5767 436.236 88.1032 436.984 87.767C437.737 87.4261 438.578 87.2557 439.506 87.2557C440.443 87.2557 441.277 87.4238 442.006 87.7599C442.735 88.0914 443.313 88.5459 443.739 89.1236C444.17 89.7012 444.397 90.357 444.42 91.0909H442.716ZM451.862 102.227C450.811 102.227 449.904 101.995 449.142 101.531C448.384 101.062 447.799 100.409 447.387 99.571C446.98 98.7282 446.777 97.7481 446.777 96.6307C446.777 95.5133 446.98 94.5284 447.387 93.6761C447.799 92.8191 448.372 92.1515 449.106 91.6733C449.845 91.1903 450.707 90.9489 451.691 90.9489C452.26 90.9489 452.821 91.0436 453.375 91.233C453.929 91.4223 454.433 91.7301 454.887 92.1562C455.342 92.5777 455.704 93.1364 455.974 93.8324C456.244 94.5284 456.379 95.3854 456.379 96.4034V97.1136H447.97V95.6648H454.674C454.674 95.0492 454.551 94.5 454.305 94.017C454.064 93.5341 453.718 93.1529 453.268 92.8736C452.823 92.5942 452.297 92.4545 451.691 92.4545C451.024 92.4545 450.446 92.6203 449.958 92.9517C449.475 93.2784 449.104 93.7045 448.843 94.2301C448.583 94.7557 448.453 95.3191 448.453 95.9205V96.8864C448.453 97.7102 448.595 98.4086 448.879 98.9815C449.168 99.5497 449.568 99.983 450.079 100.281C450.591 100.575 451.185 100.722 451.862 100.722C452.302 100.722 452.7 100.66 453.055 100.537C453.415 100.409 453.725 100.22 453.985 99.9688C454.246 99.7131 454.447 99.3958 454.589 99.017L456.208 99.4716C456.038 100.021 455.752 100.504 455.349 100.92C454.947 101.332 454.449 101.654 453.858 101.886C453.266 102.114 452.6 102.227 451.862 102.227ZM466.656 93.5341L465.15 93.9602C465.056 93.7093 464.916 93.4654 464.731 93.2287C464.551 92.9872 464.305 92.7884 463.993 92.6321C463.68 92.4759 463.28 92.3977 462.792 92.3977C462.125 92.3977 461.568 92.5516 461.123 92.8594C460.683 93.1624 460.463 93.5483 460.463 94.017C460.463 94.4337 460.614 94.7628 460.917 95.0043C461.22 95.2457 461.694 95.447 462.338 95.608L463.957 96.0057C464.932 96.2424 465.659 96.6046 466.137 97.0923C466.616 97.5753 466.855 98.1979 466.855 98.9602C466.855 99.5852 466.675 100.144 466.315 100.636C465.96 101.129 465.463 101.517 464.824 101.801C464.184 102.085 463.441 102.227 462.593 102.227C461.481 102.227 460.56 101.986 459.831 101.503C459.101 101.02 458.64 100.314 458.446 99.3864L460.037 98.9886C460.188 99.5758 460.475 100.016 460.896 100.31C461.322 100.603 461.878 100.75 462.565 100.75C463.346 100.75 463.967 100.584 464.426 100.253C464.89 99.9167 465.122 99.5142 465.122 99.0455C465.122 98.6667 464.989 98.3494 464.724 98.0938C464.459 97.8333 464.052 97.6392 463.502 97.5114L461.684 97.0852C460.685 96.8485 459.951 96.4815 459.483 95.9844C459.019 95.4825 458.787 94.8551 458.787 94.1023C458.787 93.4867 458.959 92.9422 459.305 92.4688C459.655 91.9953 460.131 91.6236 460.733 91.3537C461.339 91.0838 462.025 90.9489 462.792 90.9489C463.872 90.9489 464.719 91.1856 465.335 91.6591C465.955 92.1326 466.395 92.7576 466.656 93.5341ZM477.105 93.5341L475.599 93.9602C475.505 93.7093 475.365 93.4654 475.18 93.2287C475 92.9872 474.754 92.7884 474.442 92.6321C474.129 92.4759 473.729 92.3977 473.241 92.3977C472.574 92.3977 472.018 92.5516 471.572 92.8594C471.132 93.1624 470.912 93.5483 470.912 94.017C470.912 94.4337 471.063 94.7628 471.366 95.0043C471.67 95.2457 472.143 95.447 472.787 95.608L474.406 96.0057C475.382 96.2424 476.108 96.6046 476.587 97.0923C477.065 97.5753 477.304 98.1979 477.304 98.9602C477.304 99.5852 477.124 100.144 476.764 100.636C476.409 101.129 475.912 101.517 475.273 101.801C474.634 102.085 473.89 102.227 473.043 102.227C471.93 102.227 471.009 101.986 470.28 101.503C469.551 101.02 469.089 100.314 468.895 99.3864L470.486 98.9886C470.637 99.5758 470.924 100.016 471.345 100.31C471.771 100.603 472.328 100.75 473.014 100.75C473.795 100.75 474.416 100.584 474.875 100.253C475.339 99.9167 475.571 99.5142 475.571 99.0455C475.571 98.6667 475.438 98.3494 475.173 98.0938C474.908 97.8333 474.501 97.6392 473.952 97.5114L472.134 97.0852C471.134 96.8485 470.401 96.4815 469.932 95.9844C469.468 95.4825 469.236 94.8551 469.236 94.1023C469.236 93.4867 469.409 92.9422 469.754 92.4688C470.105 91.9953 470.58 91.6236 471.182 91.3537C471.788 91.0838 472.474 90.9489 473.241 90.9489C474.321 90.9489 475.169 91.1856 475.784 91.6591C476.404 92.1326 476.845 92.7576 477.105 93.5341ZM479.827 102V91.0909H481.503V102H479.827ZM480.679 89.2727C480.353 89.2727 480.071 89.1615 479.834 88.9389C479.602 88.7164 479.486 88.4489 479.486 88.1364C479.486 87.8239 479.602 87.5563 479.834 87.3338C480.071 87.1113 480.353 87 480.679 87C481.006 87 481.285 87.1113 481.517 87.3338C481.754 87.5563 481.873 87.8239 481.873 88.1364C481.873 88.4489 481.754 88.7164 481.517 88.9389C481.285 89.1615 481.006 89.2727 480.679 89.2727ZM489.005 102.227C488.02 102.227 487.156 101.993 486.413 101.524C485.674 101.055 485.096 100.4 484.68 99.5568C484.268 98.714 484.062 97.7292 484.062 96.6023C484.062 95.4659 484.268 94.474 484.68 93.6264C485.096 92.7789 485.674 92.1207 486.413 91.652C487.156 91.1832 488.02 90.9489 489.005 90.9489C489.99 90.9489 490.852 91.1832 491.59 91.652C492.334 92.1207 492.911 92.7789 493.323 93.6264C493.74 94.474 493.948 95.4659 493.948 96.6023C493.948 97.7292 493.74 98.714 493.323 99.5568C492.911 100.4 492.334 101.055 491.59 101.524C490.852 101.993 489.99 102.227 489.005 102.227ZM489.005 100.722C489.753 100.722 490.369 100.53 490.852 100.146C491.335 99.7628 491.692 99.2585 491.924 98.6335C492.156 98.0085 492.272 97.3314 492.272 96.6023C492.272 95.8731 492.156 95.1937 491.924 94.5639C491.692 93.9342 491.335 93.4252 490.852 93.0369C490.369 92.6487 489.753 92.4545 489.005 92.4545C488.257 92.4545 487.641 92.6487 487.158 93.0369C486.675 93.4252 486.318 93.9342 486.086 94.5639C485.854 95.1937 485.738 95.8731 485.738 96.6023C485.738 97.3314 485.854 98.0085 486.086 98.6335C486.318 99.2585 486.675 99.7628 487.158 100.146C487.641 100.53 488.257 100.722 489.005 100.722ZM498.183 95.4375V102H496.507V91.0909H498.126V92.7955H498.268C498.524 92.2415 498.912 91.7964 499.433 91.4602C499.954 91.1193 500.626 90.9489 501.45 90.9489C502.189 90.9489 502.835 91.1004 503.389 91.4034C503.943 91.7017 504.374 92.1562 504.681 92.767C504.989 93.3731 505.143 94.1402 505.143 95.0682V102H503.467V95.1818C503.467 94.3248 503.244 93.6572 502.799 93.179C502.354 92.696 501.743 92.4545 500.967 92.4545C500.432 92.4545 499.954 92.5705 499.532 92.8026C499.116 93.0346 498.787 93.3731 498.545 93.8182C498.304 94.2633 498.183 94.803 498.183 95.4375Z" fill="black"/>
<rect x="58.5" y="198.5" width="172" height="103" rx="4.5" fill="white" stroke="#FF491D"/>
<path d="M69.7614 229V214.455H78.5398V216.017H71.5227V220.932H78.0852V222.494H71.5227V227.438H78.6534V229H69.7614ZM90.4077 218.091L86.3736 229H84.669L80.6349 218.091H82.4531L85.4645 226.784H85.5781L88.5895 218.091H90.4077ZM96.8033 229.227C95.7521 229.227 94.8454 228.995 94.0831 228.531C93.3255 228.062 92.7408 227.409 92.3288 226.571C91.9216 225.728 91.718 224.748 91.718 223.631C91.718 222.513 91.9216 221.528 92.3288 220.676C92.7408 219.819 93.3137 219.152 94.0476 218.673C94.7862 218.19 95.648 217.949 96.6328 217.949C97.201 217.949 97.7621 218.044 98.3161 218.233C98.87 218.422 99.3743 218.73 99.8288 219.156C100.283 219.578 100.646 220.136 100.915 220.832C101.185 221.528 101.32 222.385 101.32 223.403V224.114H92.9112V222.665H99.6158C99.6158 222.049 99.4927 221.5 99.2464 221.017C99.005 220.534 98.6593 220.153 98.2095 219.874C97.7644 219.594 97.2389 219.455 96.6328 219.455C95.9652 219.455 95.3875 219.62 94.8999 219.952C94.4169 220.278 94.0452 220.705 93.7848 221.23C93.5244 221.756 93.3942 222.319 93.3942 222.92V223.886C93.3942 224.71 93.5362 225.409 93.8203 225.982C94.1091 226.55 94.5092 226.983 95.0206 227.281C95.532 227.575 96.1262 227.722 96.8033 227.722C97.2436 227.722 97.6413 227.66 97.9964 227.537C98.3563 227.409 98.6664 227.22 98.9268 226.969C99.1873 226.713 99.3885 226.396 99.5305 226.017L101.15 226.472C100.979 227.021 100.693 227.504 100.29 227.92C99.888 228.332 99.3909 228.654 98.799 228.886C98.2071 229.114 97.5419 229.227 96.8033 229.227ZM105.546 222.438V229H103.87V218.091H105.489V219.795H105.631C105.887 219.241 106.275 218.796 106.796 218.46C107.317 218.119 107.989 217.949 108.813 217.949C109.552 217.949 110.198 218.1 110.752 218.403C111.306 218.702 111.737 219.156 112.045 219.767C112.353 220.373 112.506 221.14 112.506 222.068V229H110.83V222.182C110.83 221.325 110.608 220.657 110.163 220.179C109.718 219.696 109.107 219.455 108.33 219.455C107.795 219.455 107.317 219.571 106.896 219.803C106.479 220.035 106.15 220.373 105.908 220.818C105.667 221.263 105.546 221.803 105.546 222.438ZM120.314 218.091V219.511H114.66V218.091H120.314ZM116.308 215.477H117.984V225.875C117.984 226.348 118.053 226.704 118.19 226.94C118.332 227.172 118.512 227.329 118.73 227.409C118.952 227.485 119.187 227.523 119.433 227.523C119.618 227.523 119.769 227.513 119.887 227.494C120.006 227.471 120.1 227.452 120.172 227.438L120.512 228.943C120.399 228.986 120.24 229.028 120.037 229.071C119.833 229.118 119.575 229.142 119.262 229.142C118.789 229.142 118.325 229.04 117.87 228.837C117.421 228.633 117.047 228.323 116.748 227.906C116.455 227.49 116.308 226.964 116.308 226.33V215.477Z" fill="black"/>
<path d="M446.466 299H444.705C444.6 298.493 444.418 298.048 444.158 297.665C443.902 297.281 443.589 296.959 443.22 296.699C442.856 296.434 442.451 296.235 442.006 296.102C441.561 295.97 441.097 295.903 440.614 295.903C439.733 295.903 438.935 296.126 438.22 296.571C437.51 297.016 436.944 297.672 436.523 298.538C436.106 299.405 435.898 300.468 435.898 301.727C435.898 302.987 436.106 304.05 436.523 304.916C436.944 305.783 437.51 306.438 438.22 306.884C438.935 307.329 439.733 307.551 440.614 307.551C441.097 307.551 441.561 307.485 442.006 307.352C442.451 307.22 442.856 307.023 443.22 306.763C443.589 306.498 443.902 306.173 444.158 305.79C444.418 305.402 444.6 304.956 444.705 304.455H446.466C446.333 305.198 446.092 305.863 445.741 306.45C445.391 307.037 444.955 307.537 444.435 307.949C443.914 308.356 443.329 308.666 442.68 308.879C442.036 309.092 441.348 309.199 440.614 309.199C439.373 309.199 438.27 308.896 437.304 308.29C436.338 307.684 435.578 306.822 435.024 305.705C434.47 304.587 434.193 303.261 434.193 301.727C434.193 300.193 434.47 298.867 435.024 297.75C435.578 296.633 436.338 295.771 437.304 295.165C438.27 294.559 439.373 294.256 440.614 294.256C441.348 294.256 442.036 294.362 442.68 294.575C443.329 294.788 443.914 295.101 444.435 295.513C444.955 295.92 445.391 296.417 445.741 297.004C446.092 297.587 446.333 298.252 446.466 299ZM455.96 304.54V298.091H457.636V309H455.96V307.153H455.846C455.591 307.707 455.193 308.179 454.653 308.567C454.113 308.95 453.431 309.142 452.608 309.142C451.926 309.142 451.32 308.993 450.789 308.695C450.259 308.392 449.842 307.937 449.539 307.331C449.236 306.72 449.085 305.951 449.085 305.023V298.091H450.761V304.909C450.761 305.705 450.984 306.339 451.429 306.812C451.878 307.286 452.451 307.523 453.147 307.523C453.564 307.523 453.988 307.416 454.419 307.203C454.854 306.99 455.219 306.663 455.512 306.223C455.811 305.783 455.96 305.222 455.96 304.54ZM468.433 300.534L466.928 300.96C466.833 300.709 466.693 300.465 466.509 300.229C466.329 299.987 466.082 299.788 465.77 299.632C465.457 299.476 465.057 299.398 464.57 299.398C463.902 299.398 463.346 299.552 462.901 299.859C462.46 300.162 462.24 300.548 462.24 301.017C462.24 301.434 462.392 301.763 462.695 302.004C462.998 302.246 463.471 302.447 464.115 302.608L465.734 303.006C466.71 303.242 467.437 303.605 467.915 304.092C468.393 304.575 468.632 305.198 468.632 305.96C468.632 306.585 468.452 307.144 468.092 307.636C467.737 308.129 467.24 308.517 466.601 308.801C465.962 309.085 465.218 309.227 464.371 309.227C463.258 309.227 462.337 308.986 461.608 308.503C460.879 308.02 460.417 307.314 460.223 306.386L461.814 305.989C461.965 306.576 462.252 307.016 462.673 307.31C463.099 307.603 463.656 307.75 464.342 307.75C465.124 307.75 465.744 307.584 466.203 307.253C466.667 306.917 466.899 306.514 466.899 306.045C466.899 305.667 466.767 305.349 466.501 305.094C466.236 304.833 465.829 304.639 465.28 304.511L463.462 304.085C462.463 303.848 461.729 303.482 461.26 302.984C460.796 302.482 460.564 301.855 460.564 301.102C460.564 300.487 460.737 299.942 461.082 299.469C461.433 298.995 461.909 298.624 462.51 298.354C463.116 298.084 463.803 297.949 464.57 297.949C465.649 297.949 466.497 298.186 467.112 298.659C467.732 299.133 468.173 299.758 468.433 300.534ZM475.9 298.091V299.511H470.246V298.091H475.9ZM471.894 295.477H473.57V305.875C473.57 306.348 473.639 306.704 473.776 306.94C473.918 307.172 474.098 307.329 474.316 307.409C474.538 307.485 474.773 307.523 475.019 307.523C475.203 307.523 475.355 307.513 475.473 307.494C475.592 307.471 475.686 307.452 475.757 307.438L476.098 308.943C475.985 308.986 475.826 309.028 475.623 309.071C475.419 309.118 475.161 309.142 474.848 309.142C474.375 309.142 473.911 309.04 473.456 308.837C473.007 308.633 472.632 308.323 472.334 307.906C472.041 307.49 471.894 306.964 471.894 306.33V295.477ZM482.735 309.227C481.751 309.227 480.886 308.993 480.143 308.524C479.404 308.055 478.827 307.4 478.41 306.557C477.998 305.714 477.792 304.729 477.792 303.602C477.792 302.466 477.998 301.474 478.41 300.626C478.827 299.779 479.404 299.121 480.143 298.652C480.886 298.183 481.751 297.949 482.735 297.949C483.72 297.949 484.582 298.183 485.321 298.652C486.064 299.121 486.642 299.779 487.054 300.626C487.47 301.474 487.679 302.466 487.679 303.602C487.679 304.729 487.47 305.714 487.054 306.557C486.642 307.4 486.064 308.055 485.321 308.524C484.582 308.993 483.72 309.227 482.735 309.227ZM482.735 307.722C483.484 307.722 484.099 307.53 484.582 307.146C485.065 306.763 485.422 306.259 485.654 305.634C485.886 305.009 486.002 304.331 486.002 303.602C486.002 302.873 485.886 302.194 485.654 301.564C485.422 300.934 485.065 300.425 484.582 300.037C484.099 299.649 483.484 299.455 482.735 299.455C481.987 299.455 481.372 299.649 480.889 300.037C480.406 300.425 480.048 300.934 479.816 301.564C479.584 302.194 479.468 302.873 479.468 303.602C479.468 304.331 479.584 305.009 479.816 305.634C480.048 306.259 480.406 306.763 480.889 307.146C481.372 307.53 481.987 307.722 482.735 307.722ZM490.237 309V298.091H491.857V299.795H491.999C492.226 299.213 492.593 298.761 493.099 298.439C493.606 298.112 494.214 297.949 494.925 297.949C495.644 297.949 496.243 298.112 496.722 298.439C497.205 298.761 497.581 299.213 497.851 299.795H497.964C498.244 299.232 498.663 298.785 499.222 298.453C499.78 298.117 500.45 297.949 501.232 297.949C502.207 297.949 503.005 298.254 503.625 298.865C504.245 299.471 504.555 300.416 504.555 301.699V309H502.879V301.699C502.879 300.894 502.659 300.319 502.219 299.973C501.778 299.627 501.26 299.455 500.663 299.455C499.896 299.455 499.302 299.687 498.881 300.151C498.459 300.61 498.249 301.192 498.249 301.898V309H496.544V301.528C496.544 300.908 496.343 300.409 495.94 300.03C495.538 299.646 495.019 299.455 494.385 299.455C493.949 299.455 493.542 299.571 493.163 299.803C492.789 300.035 492.486 300.357 492.254 300.768C492.027 301.176 491.913 301.647 491.913 302.182V309H490.237ZM512.194 309.227C511.143 309.227 510.236 308.995 509.474 308.531C508.716 308.062 508.131 307.409 507.719 306.571C507.312 305.728 507.109 304.748 507.109 303.631C507.109 302.513 507.312 301.528 507.719 300.676C508.131 299.819 508.704 299.152 509.438 298.673C510.177 298.19 511.039 297.949 512.023 297.949C512.592 297.949 513.153 298.044 513.707 298.233C514.261 298.422 514.765 298.73 515.219 299.156C515.674 299.578 516.036 300.136 516.306 300.832C516.576 301.528 516.711 302.385 516.711 303.403V304.114H508.302V302.665H515.006C515.006 302.049 514.883 301.5 514.637 301.017C514.396 300.534 514.05 300.153 513.6 299.874C513.155 299.594 512.629 299.455 512.023 299.455C511.356 299.455 510.778 299.62 510.29 299.952C509.808 300.278 509.436 300.705 509.175 301.23C508.915 301.756 508.785 302.319 508.785 302.92V303.886C508.785 304.71 508.927 305.409 509.211 305.982C509.5 306.55 509.9 306.983 510.411 307.281C510.923 307.575 511.517 307.722 512.194 307.722C512.634 307.722 513.032 307.66 513.387 307.537C513.747 307.409 514.057 307.22 514.317 306.969C514.578 306.713 514.779 306.396 514.921 306.017L516.54 306.472C516.37 307.021 516.084 307.504 515.681 307.92C515.279 308.332 514.781 308.654 514.19 308.886C513.598 309.114 512.933 309.227 512.194 309.227ZM519.261 309V298.091H520.88V299.739H520.994C521.192 299.199 521.552 298.761 522.073 298.425C522.594 298.089 523.181 297.92 523.835 297.92C523.958 297.92 524.112 297.923 524.296 297.928C524.481 297.932 524.621 297.939 524.715 297.949V299.653C524.658 299.639 524.528 299.618 524.325 299.589C524.126 299.556 523.915 299.54 523.692 299.54C523.162 299.54 522.689 299.651 522.272 299.874C521.86 300.091 521.533 300.394 521.292 300.783C521.055 301.166 520.937 301.604 520.937 302.097V309H519.261Z" fill="black"/>
<line x1="231" y1="216.5" x2="297" y2="216.5" stroke="black"/>
<line x1="438.5" y1="130" x2="438.5" y2="164" stroke="black"/>
<line x1="555.5" y1="130" x2="555.5" y2="266" stroke="black"/>
<line x1="409" y1="95.5" x2="133" y2="95.5" stroke="black"/>
<line x1="133.5" y1="95" x2="133.5" y2="183" stroke="black"/>
<line x1="231" y1="285.5" x2="409" y2="285.5" stroke="black"/>
<path d="M69.4148 251H68.3068L71.5114 242.273H72.6023L75.8068 251H74.6989L72.0909 243.653H72.0227L69.4148 251ZM69.8239 247.591H74.2898V248.528H69.8239V247.591ZM79.6889 251.136C79.0753 251.136 78.5469 250.991 78.1037 250.702C77.6605 250.412 77.3196 250.013 77.081 249.504C76.8423 248.996 76.723 248.415 76.723 247.761C76.723 247.097 76.8452 246.51 77.0895 246.001C77.3366 245.49 77.6804 245.091 78.1207 244.804C78.5639 244.514 79.081 244.369 79.6719 244.369C80.1321 244.369 80.5469 244.455 80.9162 244.625C81.2855 244.795 81.5881 245.034 81.8239 245.341C82.0597 245.648 82.206 246.006 82.2628 246.415H81.2571C81.1804 246.116 81.0099 245.852 80.7457 245.622C80.4844 245.389 80.1321 245.273 79.6889 245.273C79.2969 245.273 78.9531 245.375 78.6577 245.58C78.3651 245.781 78.1364 246.067 77.9716 246.436C77.8097 246.803 77.7287 247.233 77.7287 247.727C77.7287 248.233 77.8082 248.673 77.9673 249.048C78.1293 249.423 78.3565 249.714 78.6491 249.922C78.9446 250.129 79.2912 250.233 79.6889 250.233C79.9503 250.233 80.1875 250.188 80.4006 250.097C80.6136 250.006 80.794 249.875 80.9418 249.705C81.0895 249.534 81.1946 249.33 81.2571 249.091H82.2628C82.206 249.477 82.0653 249.825 81.8409 250.135C81.6193 250.442 81.3253 250.686 80.9588 250.868C80.5952 251.047 80.1719 251.136 79.6889 251.136ZM86.5795 244.455V245.307H83.1875V244.455H86.5795ZM84.1761 242.886H85.1818V249.125C85.1818 249.409 85.223 249.622 85.3054 249.764C85.3906 249.903 85.4986 249.997 85.6293 250.045C85.7628 250.091 85.9034 250.114 86.0511 250.114C86.1619 250.114 86.2528 250.108 86.3239 250.097C86.3949 250.082 86.4517 250.071 86.4943 250.062L86.6989 250.966C86.6307 250.991 86.5355 251.017 86.4134 251.043C86.2912 251.071 86.1364 251.085 85.9489 251.085C85.6648 251.085 85.3864 251.024 85.1136 250.902C84.8438 250.78 84.6193 250.594 84.4403 250.344C84.2642 250.094 84.1761 249.778 84.1761 249.398V242.886ZM88.0923 251V244.455H89.098V251H88.0923ZM88.6037 243.364C88.4077 243.364 88.2386 243.297 88.0966 243.163C87.9574 243.03 87.8878 242.869 87.8878 242.682C87.8878 242.494 87.9574 242.334 88.0966 242.2C88.2386 242.067 88.4077 242 88.6037 242C88.7997 242 88.9673 242.067 89.1065 242.2C89.2486 242.334 89.3196 242.494 89.3196 242.682C89.3196 242.869 89.2486 243.03 89.1065 243.163C88.9673 243.297 88.7997 243.364 88.6037 243.364ZM93.5991 251.136C93.0082 251.136 92.4897 250.996 92.0437 250.714C91.6005 250.433 91.2539 250.04 91.0039 249.534C90.7567 249.028 90.6332 248.437 90.6332 247.761C90.6332 247.08 90.7567 246.484 91.0039 245.976C91.2539 245.467 91.6005 245.072 92.0437 244.791C92.4897 244.51 93.0082 244.369 93.5991 244.369C94.19 244.369 94.707 244.51 95.1502 244.791C95.5962 245.072 95.9428 245.467 96.19 245.976C96.44 246.484 96.565 247.08 96.565 247.761C96.565 248.437 96.44 249.028 96.19 249.534C95.9428 250.04 95.5962 250.433 95.1502 250.714C94.707 250.996 94.19 251.136 93.5991 251.136ZM93.5991 250.233C94.0479 250.233 94.4173 250.118 94.707 249.888C94.9968 249.658 95.2113 249.355 95.3505 248.98C95.4897 248.605 95.5593 248.199 95.5593 247.761C95.5593 247.324 95.4897 246.916 95.3505 246.538C95.2113 246.161 94.9968 245.855 94.707 245.622C94.4173 245.389 94.0479 245.273 93.5991 245.273C93.1502 245.273 92.7809 245.389 92.4911 245.622C92.2013 245.855 91.9869 246.161 91.8477 246.538C91.7085 246.916 91.6388 247.324 91.6388 247.761C91.6388 248.199 91.7085 248.605 91.8477 248.98C91.9869 249.355 92.2013 249.658 92.4911 249.888C92.7809 250.118 93.1502 250.233 93.5991 250.233ZM99.1058 247.062V251H98.1001V244.455H99.0717V245.477H99.157C99.3104 245.145 99.5433 244.878 99.8558 244.676C100.168 244.472 100.572 244.369 101.066 244.369C101.509 244.369 101.897 244.46 102.229 244.642C102.562 244.821 102.82 245.094 103.005 245.46C103.19 245.824 103.282 246.284 103.282 246.841V251H102.276V246.909C102.276 246.395 102.143 245.994 101.876 245.707C101.609 245.418 101.242 245.273 100.776 245.273C100.455 245.273 100.168 245.342 99.9155 245.482C99.6655 245.621 99.468 245.824 99.3232 246.091C99.1783 246.358 99.1058 246.682 99.1058 247.062ZM69.0568 266V257.273H72.0057C72.6903 257.273 73.25 257.396 73.6847 257.643C74.1222 257.888 74.446 258.219 74.6562 258.636C74.8665 259.054 74.9716 259.52 74.9716 260.034C74.9716 260.548 74.8665 261.016 74.6562 261.436C74.4489 261.857 74.1278 262.192 73.6932 262.442C73.2585 262.689 72.7017 262.812 72.0227 262.812H69.9091V261.875H71.9886C72.4574 261.875 72.8338 261.794 73.1179 261.632C73.402 261.47 73.608 261.251 73.7358 260.976C73.8665 260.697 73.9318 260.384 73.9318 260.034C73.9318 259.685 73.8665 259.372 73.7358 259.097C73.608 258.821 73.4006 258.605 73.1136 258.449C72.8267 258.29 72.446 258.21 71.9716 258.21H70.1136V266H69.0568ZM78.4638 266.153C78.049 266.153 77.6726 266.075 77.3345 265.919C76.9964 265.76 76.728 265.531 76.5291 265.233C76.3303 264.932 76.2308 264.568 76.2308 264.142C76.2308 263.767 76.3047 263.463 76.4524 263.23C76.6001 262.994 76.7976 262.81 77.0447 262.676C77.2919 262.543 77.5646 262.443 77.8629 262.378C78.1641 262.31 78.4666 262.256 78.7706 262.216C79.1683 262.165 79.4908 262.126 79.7379 262.101C79.9879 262.072 80.1697 262.026 80.2834 261.96C80.3999 261.895 80.4581 261.781 80.4581 261.619V261.585C80.4581 261.165 80.343 260.838 80.1129 260.605C79.8857 260.372 79.5405 260.256 79.0774 260.256C78.5973 260.256 78.2209 260.361 77.9482 260.571C77.6754 260.781 77.4837 261.006 77.3729 261.244L76.4183 260.903C76.5888 260.506 76.8161 260.196 77.1001 259.974C77.3871 259.75 77.6996 259.594 78.0376 259.506C78.3786 259.415 78.7138 259.369 79.0433 259.369C79.2536 259.369 79.495 259.395 79.7678 259.446C80.0433 259.494 80.3089 259.595 80.5646 259.749C80.8232 259.902 81.0376 260.134 81.2081 260.443C81.3786 260.753 81.4638 261.168 81.4638 261.688V266H80.4581V265.114H80.407C80.3388 265.256 80.2251 265.408 80.0661 265.57C79.907 265.732 79.6953 265.869 79.4311 265.983C79.1669 266.097 78.8445 266.153 78.4638 266.153ZM78.6172 265.25C79.0149 265.25 79.3501 265.172 79.6229 265.016C79.8984 264.859 80.1058 264.658 80.245 264.411C80.3871 264.163 80.4581 263.903 80.4581 263.631V262.71C80.4155 262.761 80.3217 262.808 80.1768 262.851C80.0348 262.891 79.87 262.926 79.6825 262.957C79.4979 262.986 79.3175 263.011 79.1413 263.034C78.968 263.054 78.8274 263.071 78.7195 263.085C78.4581 263.119 78.2138 263.175 77.9865 263.251C77.7621 263.325 77.5803 263.437 77.4411 263.588C77.3047 263.736 77.2365 263.937 77.2365 264.193C77.2365 264.543 77.3658 264.807 77.6243 264.986C77.8857 265.162 78.2166 265.25 78.6172 265.25ZM85.9414 268.591C85.4556 268.591 85.038 268.528 84.6886 268.403C84.3391 268.281 84.0479 268.119 83.815 267.918C83.5849 267.719 83.4016 267.506 83.2653 267.278L84.0664 266.716C84.1573 266.835 84.2724 266.972 84.4116 267.125C84.5508 267.281 84.7411 267.416 84.9826 267.53C85.2269 267.646 85.5465 267.705 85.9414 267.705C86.4698 267.705 86.9059 267.577 87.2496 267.321C87.5934 267.065 87.7653 266.665 87.7653 266.119V264.79H87.68C87.6062 264.909 87.5011 265.057 87.3647 265.233C87.2312 265.406 87.038 265.561 86.7852 265.697C86.5352 265.831 86.1971 265.898 85.771 265.898C85.2425 265.898 84.7681 265.773 84.3477 265.523C83.93 265.273 83.5991 264.909 83.3548 264.432C83.1133 263.955 82.9925 263.375 82.9925 262.693C82.9925 262.023 83.1104 261.439 83.3462 260.942C83.582 260.442 83.9102 260.055 84.3306 259.783C84.7511 259.507 85.2369 259.369 85.788 259.369C86.2141 259.369 86.5522 259.44 86.8022 259.582C87.055 259.722 87.2482 259.881 87.3817 260.06C87.5181 260.236 87.6232 260.381 87.6971 260.494H87.7994V259.455H88.771V266.188C88.771 266.75 88.6431 267.207 88.3874 267.56C88.1346 267.915 87.7937 268.175 87.3647 268.339C86.9386 268.507 86.4641 268.591 85.9414 268.591ZM85.9073 264.994C86.3107 264.994 86.6516 264.902 86.93 264.717C87.2085 264.533 87.4201 264.267 87.565 263.92C87.7099 263.574 87.7823 263.159 87.7823 262.676C87.7823 262.205 87.7113 261.788 87.5692 261.428C87.4272 261.067 87.217 260.784 86.9386 260.58C86.6602 260.375 86.3164 260.273 85.9073 260.273C85.4812 260.273 85.1261 260.381 84.842 260.597C84.5607 260.812 84.3491 261.102 84.207 261.466C84.0678 261.83 83.9982 262.233 83.9982 262.676C83.9982 263.131 84.0692 263.533 84.2113 263.882C84.3562 264.229 84.5692 264.501 84.8505 264.7C85.1346 264.896 85.4869 264.994 85.9073 264.994ZM93.3562 266.136C92.7255 266.136 92.1815 265.997 91.7241 265.719C91.2695 265.438 90.9187 265.045 90.6715 264.543C90.4272 264.037 90.305 263.449 90.305 262.778C90.305 262.108 90.4272 261.517 90.6715 261.006C90.9187 260.491 91.2624 260.091 91.7028 259.804C92.146 259.514 92.663 259.369 93.2539 259.369C93.5948 259.369 93.9315 259.426 94.2638 259.54C94.5962 259.653 94.8988 259.838 95.1715 260.094C95.4442 260.347 95.6616 260.682 95.8235 261.099C95.9854 261.517 96.0664 262.031 96.0664 262.642V263.068H91.021V262.199H95.0437C95.0437 261.83 94.9698 261.5 94.8221 261.21C94.6772 260.92 94.4698 260.692 94.1999 260.524C93.9329 260.357 93.6175 260.273 93.2539 260.273C92.8533 260.273 92.5067 260.372 92.2141 260.571C91.9244 260.767 91.7013 261.023 91.5451 261.338C91.3888 261.653 91.3107 261.991 91.3107 262.352V262.932C91.3107 263.426 91.396 263.845 91.5664 264.189C91.7397 264.53 91.9798 264.79 92.2866 264.969C92.5934 265.145 92.9499 265.233 93.3562 265.233C93.6204 265.233 93.859 265.196 94.0721 265.122C94.288 265.045 94.4741 264.932 94.6303 264.781C94.7866 264.628 94.9073 264.437 94.9925 264.21L95.9641 264.483C95.8619 264.812 95.69 265.102 95.4485 265.352C95.207 265.599 94.9087 265.793 94.5536 265.932C94.1985 266.068 93.7994 266.136 93.3562 266.136ZM106.324 259.455L103.903 266H102.88L100.46 259.455H101.551L103.358 264.67H103.426L105.233 259.455H106.324ZM107.651 266V259.455H108.657V266H107.651ZM108.162 258.364C107.966 258.364 107.797 258.297 107.655 258.163C107.516 258.03 107.446 257.869 107.446 257.682C107.446 257.494 107.516 257.334 107.655 257.2C107.797 257.067 107.966 257 108.162 257C108.358 257 108.526 257.067 108.665 257.2C108.807 257.334 108.878 257.494 108.878 257.682C108.878 257.869 108.807 258.03 108.665 258.163C108.526 258.297 108.358 258.364 108.162 258.364ZM113.243 266.136C112.612 266.136 112.068 265.997 111.611 265.719C111.156 265.438 110.805 265.045 110.558 264.543C110.314 264.037 110.192 263.449 110.192 262.778C110.192 262.108 110.314 261.517 110.558 261.006C110.805 260.491 111.149 260.091 111.589 259.804C112.033 259.514 112.55 259.369 113.141 259.369C113.482 259.369 113.818 259.426 114.151 259.54C114.483 259.653 114.786 259.838 115.058 260.094C115.331 260.347 115.548 260.682 115.71 261.099C115.872 261.517 115.953 262.031 115.953 262.642V263.068H110.908V262.199H114.93C114.93 261.83 114.857 261.5 114.709 261.21C114.564 260.92 114.357 260.692 114.087 260.524C113.82 260.357 113.504 260.273 113.141 260.273C112.74 260.273 112.393 260.372 112.101 260.571C111.811 260.767 111.588 261.023 111.432 261.338C111.276 261.653 111.197 261.991 111.197 262.352V262.932C111.197 263.426 111.283 263.845 111.453 264.189C111.626 264.53 111.866 264.79 112.173 264.969C112.48 265.145 112.837 265.233 113.243 265.233C113.507 265.233 113.746 265.196 113.959 265.122C114.175 265.045 114.361 264.932 114.517 264.781C114.673 264.628 114.794 264.437 114.879 264.21L115.851 264.483C115.749 264.812 115.577 265.102 115.335 265.352C115.094 265.599 114.795 265.793 114.44 265.932C114.085 266.068 113.686 266.136 113.243 266.136ZM118.966 266L116.972 259.455H118.028L119.443 264.466H119.511L120.909 259.455H121.983L123.364 264.449H123.432L124.847 259.455H125.903L123.909 266H122.92L121.489 260.972H121.386L119.955 266H118.966Z" fill="#858585"/>
</svg>
