<svg width="628" height="396" viewBox="0 0 628 396" fill="none" xmlns="http://www.w3.org/2000/svg">
<rect width="628" height="396" fill="white"/>
<rect x="102.5" y="182.5" width="172" height="103" rx="4.5" fill="white" stroke="#FF491D"/>
<rect x="108.5" y="189.5" width="172" height="103" rx="4.5" fill="white" stroke="#FF491D"/>
<rect x="353.5" y="267.5" width="172" height="69" rx="4.5" fill="white" stroke="#0E65DA"/>
<rect x="353.5" y="163.5" width="172" height="69" rx="4.5" fill="white" stroke="#0E65DA"/>
<path d="M388.307 190.455H390.068V200.085C390.068 201.08 389.834 201.967 389.365 202.749C388.901 203.525 388.245 204.138 387.398 204.588C386.55 205.033 385.556 205.256 384.415 205.256C383.274 205.256 382.279 205.033 381.432 204.588C380.584 204.138 379.926 203.525 379.457 202.749C378.993 201.967 378.761 201.08 378.761 200.085V190.455H380.523V199.943C380.523 200.653 380.679 201.286 380.991 201.839C381.304 202.389 381.749 202.822 382.327 203.139C382.909 203.452 383.605 203.608 384.415 203.608C385.224 203.608 385.92 203.452 386.503 203.139C387.085 202.822 387.53 202.389 387.838 201.839C388.151 201.286 388.307 200.653 388.307 199.943V190.455ZM401.086 196.534L399.58 196.96C399.485 196.709 399.346 196.465 399.161 196.229C398.981 195.987 398.735 195.788 398.422 195.632C398.11 195.476 397.71 195.398 397.222 195.398C396.554 195.398 395.998 195.552 395.553 195.859C395.113 196.162 394.892 196.548 394.892 197.017C394.892 197.434 395.044 197.763 395.347 198.004C395.65 198.246 396.123 198.447 396.767 198.608L398.387 199.006C399.362 199.242 400.089 199.605 400.567 200.092C401.045 200.575 401.284 201.198 401.284 201.96C401.284 202.585 401.105 203.144 400.745 203.636C400.39 204.129 399.892 204.517 399.253 204.801C398.614 205.085 397.871 205.227 397.023 205.227C395.91 205.227 394.989 204.986 394.26 204.503C393.531 204.02 393.069 203.314 392.875 202.386L394.466 201.989C394.618 202.576 394.904 203.016 395.326 203.31C395.752 203.603 396.308 203.75 396.995 203.75C397.776 203.75 398.396 203.584 398.855 203.253C399.319 202.917 399.551 202.514 399.551 202.045C399.551 201.667 399.419 201.349 399.154 201.094C398.889 200.833 398.481 200.639 397.932 200.511L396.114 200.085C395.115 199.848 394.381 199.482 393.912 198.984C393.448 198.482 393.216 197.855 393.216 197.102C393.216 196.487 393.389 195.942 393.735 195.469C394.085 194.995 394.561 194.624 395.162 194.354C395.768 194.084 396.455 193.949 397.222 193.949C398.301 193.949 399.149 194.186 399.765 194.659C400.385 195.133 400.825 195.758 401.086 196.534ZM408.381 205.227C407.33 205.227 406.424 204.995 405.661 204.531C404.904 204.062 404.319 203.409 403.907 202.571C403.5 201.728 403.296 200.748 403.296 199.631C403.296 198.513 403.5 197.528 403.907 196.676C404.319 195.819 404.892 195.152 405.626 194.673C406.364 194.19 407.226 193.949 408.211 193.949C408.779 193.949 409.34 194.044 409.894 194.233C410.448 194.422 410.952 194.73 411.407 195.156C411.862 195.578 412.224 196.136 412.494 196.832C412.763 197.528 412.898 198.385 412.898 199.403V200.114H404.489V198.665H411.194C411.194 198.049 411.071 197.5 410.825 197.017C410.583 196.534 410.237 196.153 409.788 195.874C409.343 195.594 408.817 195.455 408.211 195.455C407.543 195.455 406.966 195.62 406.478 195.952C405.995 196.278 405.623 196.705 405.363 197.23C405.103 197.756 404.972 198.319 404.972 198.92V199.886C404.972 200.71 405.114 201.409 405.398 201.982C405.687 202.55 406.087 202.983 406.599 203.281C407.11 203.575 407.704 203.722 408.381 203.722C408.822 203.722 409.219 203.66 409.575 203.537C409.934 203.409 410.245 203.22 410.505 202.969C410.765 202.713 410.967 202.396 411.109 202.017L412.728 202.472C412.558 203.021 412.271 203.504 411.869 203.92C411.466 204.332 410.969 204.654 410.377 204.886C409.785 205.114 409.12 205.227 408.381 205.227ZM415.448 205V194.091H417.067V195.739H417.181C417.38 195.199 417.74 194.761 418.261 194.425C418.781 194.089 419.369 193.92 420.022 193.92C420.145 193.92 420.299 193.923 420.484 193.928C420.668 193.932 420.808 193.939 420.903 193.949V195.653C420.846 195.639 420.716 195.618 420.512 195.589C420.313 195.556 420.103 195.54 419.88 195.54C419.35 195.54 418.876 195.651 418.46 195.874C418.048 196.091 417.721 196.394 417.479 196.783C417.243 197.166 417.124 197.604 417.124 198.097V205H415.448Z" fill="black"/>
<rect x="353.5" y="59.5" width="172" height="69" rx="4.5" fill="white" stroke="#0E65DA"/>
<path d="M386.716 90.0909C386.631 89.3712 386.285 88.8125 385.679 88.4148C385.073 88.017 384.33 87.8182 383.449 87.8182C382.805 87.8182 382.241 87.9223 381.759 88.1307C381.28 88.339 380.906 88.6255 380.636 88.9901C380.371 89.3546 380.239 89.7689 380.239 90.233C380.239 90.6212 380.331 90.955 380.516 91.2344C380.705 91.509 380.946 91.7386 381.24 91.9233C381.534 92.1032 381.841 92.2524 382.163 92.3707C382.485 92.4844 382.781 92.5767 383.051 92.6477L384.528 93.0455C384.907 93.1449 385.329 93.2822 385.793 93.4574C386.261 93.6326 386.709 93.8717 387.135 94.1747C387.566 94.473 387.921 94.8565 388.2 95.3253C388.48 95.794 388.619 96.3693 388.619 97.0511C388.619 97.8371 388.413 98.5473 388.001 99.1818C387.594 99.8163 386.998 100.321 386.212 100.695C385.43 101.069 384.481 101.256 383.364 101.256C382.322 101.256 381.42 101.088 380.658 100.751C379.9 100.415 379.304 99.9465 378.868 99.3452C378.437 98.7438 378.193 98.0455 378.136 97.25H379.955C380.002 97.7992 380.187 98.2538 380.509 98.6136C380.835 98.9687 381.247 99.2339 381.744 99.4091C382.246 99.5795 382.786 99.6648 383.364 99.6648C384.036 99.6648 384.64 99.5559 385.175 99.3381C385.71 99.1155 386.134 98.8078 386.446 98.4148C386.759 98.017 386.915 97.553 386.915 97.0227C386.915 96.5398 386.78 96.1468 386.51 95.8438C386.24 95.5407 385.885 95.2945 385.445 95.1051C385.004 94.9157 384.528 94.75 384.017 94.608L382.227 94.0966C381.091 93.7699 380.191 93.3035 379.528 92.6974C378.866 92.0914 378.534 91.2983 378.534 90.3182C378.534 89.5038 378.754 88.7936 379.195 88.1875C379.64 87.5767 380.236 87.1032 380.984 86.767C381.737 86.4261 382.578 86.2557 383.506 86.2557C384.443 86.2557 385.277 86.4238 386.006 86.7599C386.735 87.0914 387.313 87.5459 387.739 88.1236C388.17 88.7012 388.397 89.357 388.42 90.0909H386.716ZM395.862 101.227C394.811 101.227 393.904 100.995 393.142 100.531C392.384 100.062 391.799 99.4091 391.387 98.571C390.98 97.7282 390.777 96.7481 390.777 95.6307C390.777 94.5133 390.98 93.5284 391.387 92.6761C391.799 91.8191 392.372 91.1515 393.106 90.6733C393.845 90.1903 394.707 89.9489 395.691 89.9489C396.26 89.9489 396.821 90.0436 397.375 90.233C397.929 90.4223 398.433 90.7301 398.887 91.1562C399.342 91.5777 399.704 92.1364 399.974 92.8324C400.244 93.5284 400.379 94.3854 400.379 95.4034V96.1136H391.97V94.6648H398.674C398.674 94.0492 398.551 93.5 398.305 93.017C398.064 92.5341 397.718 92.1529 397.268 91.8736C396.823 91.5942 396.297 91.4545 395.691 91.4545C395.024 91.4545 394.446 91.6203 393.958 91.9517C393.475 92.2784 393.104 92.7045 392.843 93.2301C392.583 93.7557 392.453 94.3191 392.453 94.9205V95.8864C392.453 96.7102 392.595 97.4086 392.879 97.9815C393.168 98.5497 393.568 98.983 394.079 99.2812C394.591 99.5748 395.185 99.7216 395.862 99.7216C396.302 99.7216 396.7 99.66 397.055 99.5369C397.415 99.4091 397.725 99.2197 397.985 98.9688C398.246 98.7131 398.447 98.3958 398.589 98.017L400.208 98.4716C400.038 99.0208 399.752 99.5038 399.349 99.9205C398.947 100.332 398.449 100.654 397.858 100.886C397.266 101.114 396.6 101.227 395.862 101.227ZM410.656 92.5341L409.15 92.9602C409.056 92.7093 408.916 92.4654 408.731 92.2287C408.551 91.9872 408.305 91.7884 407.993 91.6321C407.68 91.4759 407.28 91.3977 406.792 91.3977C406.125 91.3977 405.568 91.5516 405.123 91.8594C404.683 92.1624 404.463 92.5483 404.463 93.017C404.463 93.4337 404.614 93.7628 404.917 94.0043C405.22 94.2457 405.694 94.447 406.338 94.608L407.957 95.0057C408.932 95.2424 409.659 95.6046 410.137 96.0923C410.616 96.5753 410.855 97.1979 410.855 97.9602C410.855 98.5852 410.675 99.1439 410.315 99.6364C409.96 100.129 409.463 100.517 408.824 100.801C408.184 101.085 407.441 101.227 406.593 101.227C405.481 101.227 404.56 100.986 403.831 100.503C403.101 100.02 402.64 99.3144 402.446 98.3864L404.037 97.9886C404.188 98.5758 404.475 99.0161 404.896 99.3097C405.322 99.6032 405.878 99.75 406.565 99.75C407.346 99.75 407.967 99.5843 408.426 99.2528C408.89 98.9167 409.122 98.5142 409.122 98.0455C409.122 97.6667 408.989 97.3494 408.724 97.0938C408.459 96.8333 408.052 96.6392 407.502 96.5114L405.684 96.0852C404.685 95.8485 403.951 95.4815 403.483 94.9844C403.019 94.4825 402.787 93.8551 402.787 93.1023C402.787 92.4867 402.959 91.9422 403.305 91.4688C403.655 90.9953 404.131 90.6236 404.733 90.3537C405.339 90.0838 406.025 89.9489 406.792 89.9489C407.872 89.9489 408.719 90.1856 409.335 90.6591C409.955 91.1326 410.395 91.7576 410.656 92.5341ZM421.105 92.5341L419.599 92.9602C419.505 92.7093 419.365 92.4654 419.18 92.2287C419 91.9872 418.754 91.7884 418.442 91.6321C418.129 91.4759 417.729 91.3977 417.241 91.3977C416.574 91.3977 416.018 91.5516 415.572 91.8594C415.132 92.1624 414.912 92.5483 414.912 93.017C414.912 93.4337 415.063 93.7628 415.366 94.0043C415.67 94.2457 416.143 94.447 416.787 94.608L418.406 95.0057C419.382 95.2424 420.108 95.6046 420.587 96.0923C421.065 96.5753 421.304 97.1979 421.304 97.9602C421.304 98.5852 421.124 99.1439 420.764 99.6364C420.409 100.129 419.912 100.517 419.273 100.801C418.634 101.085 417.89 101.227 417.043 101.227C415.93 101.227 415.009 100.986 414.28 100.503C413.551 100.02 413.089 99.3144 412.895 98.3864L414.486 97.9886C414.637 98.5758 414.924 99.0161 415.345 99.3097C415.771 99.6032 416.328 99.75 417.014 99.75C417.795 99.75 418.416 99.5843 418.875 99.2528C419.339 98.9167 419.571 98.5142 419.571 98.0455C419.571 97.6667 419.438 97.3494 419.173 97.0938C418.908 96.8333 418.501 96.6392 417.952 96.5114L416.134 96.0852C415.134 95.8485 414.401 95.4815 413.932 94.9844C413.468 94.4825 413.236 93.8551 413.236 93.1023C413.236 92.4867 413.409 91.9422 413.754 91.4688C414.105 90.9953 414.58 90.6236 415.182 90.3537C415.788 90.0838 416.474 89.9489 417.241 89.9489C418.321 89.9489 419.169 90.1856 419.784 90.6591C420.404 91.1326 420.845 91.7576 421.105 92.5341ZM423.827 101V90.0909H425.503V101H423.827ZM424.679 88.2727C424.353 88.2727 424.071 88.1615 423.834 87.9389C423.602 87.7164 423.486 87.4489 423.486 87.1364C423.486 86.8239 423.602 86.5563 423.834 86.3338C424.071 86.1113 424.353 86 424.679 86C425.006 86 425.285 86.1113 425.517 86.3338C425.754 86.5563 425.873 86.8239 425.873 87.1364C425.873 87.4489 425.754 87.7164 425.517 87.9389C425.285 88.1615 425.006 88.2727 424.679 88.2727ZM433.005 101.227C432.02 101.227 431.156 100.993 430.413 100.524C429.674 100.055 429.096 99.3996 428.68 98.5568C428.268 97.714 428.062 96.7292 428.062 95.6023C428.062 94.4659 428.268 93.474 428.68 92.6264C429.096 91.7789 429.674 91.1207 430.413 90.652C431.156 90.1832 432.02 89.9489 433.005 89.9489C433.99 89.9489 434.852 90.1832 435.59 90.652C436.334 91.1207 436.911 91.7789 437.323 92.6264C437.74 93.474 437.948 94.4659 437.948 95.6023C437.948 96.7292 437.74 97.714 437.323 98.5568C436.911 99.3996 436.334 100.055 435.59 100.524C434.852 100.993 433.99 101.227 433.005 101.227ZM433.005 99.7216C433.753 99.7216 434.369 99.5298 434.852 99.1463C435.335 98.7628 435.692 98.2585 435.924 97.6335C436.156 97.0085 436.272 96.3314 436.272 95.6023C436.272 94.8731 436.156 94.1937 435.924 93.5639C435.692 92.9342 435.335 92.4252 434.852 92.0369C434.369 91.6487 433.753 91.4545 433.005 91.4545C432.257 91.4545 431.641 91.6487 431.158 92.0369C430.675 92.4252 430.318 92.9342 430.086 93.5639C429.854 94.1937 429.738 94.8731 429.738 95.6023C429.738 96.3314 429.854 97.0085 430.086 97.6335C430.318 98.2585 430.675 98.7628 431.158 99.1463C431.641 99.5298 432.257 99.7216 433.005 99.7216ZM442.183 94.4375V101H440.507V90.0909H442.126V91.7955H442.268C442.524 91.2415 442.912 90.7964 443.433 90.4602C443.954 90.1193 444.626 89.9489 445.45 89.9489C446.189 89.9489 446.835 90.1004 447.389 90.4034C447.943 90.7017 448.374 91.1562 448.681 91.767C448.989 92.3731 449.143 93.1402 449.143 94.0682V101H447.467V94.1818C447.467 93.3248 447.244 92.6572 446.799 92.179C446.354 91.696 445.743 91.4545 444.967 91.4545C444.432 91.4545 443.954 91.5705 443.532 91.8026C443.116 92.0346 442.787 92.3731 442.545 92.8182C442.304 93.2633 442.183 93.803 442.183 94.4375Z" fill="black"/>
<rect x="114.5" y="197.5" width="172" height="103" rx="4.5" fill="white" stroke="#FF491D"/>
<path d="M125.761 228V213.455H134.54V215.017H127.523V219.932H134.085V221.494H127.523V226.438H134.653V228H125.761ZM146.408 217.091L142.374 228H140.669L136.635 217.091H138.453L141.464 225.784H141.578L144.589 217.091H146.408ZM152.803 228.227C151.752 228.227 150.845 227.995 150.083 227.531C149.326 227.062 148.741 226.409 148.329 225.571C147.922 224.728 147.718 223.748 147.718 222.631C147.718 221.513 147.922 220.528 148.329 219.676C148.741 218.819 149.314 218.152 150.048 217.673C150.786 217.19 151.648 216.949 152.633 216.949C153.201 216.949 153.762 217.044 154.316 217.233C154.87 217.422 155.374 217.73 155.829 218.156C156.283 218.578 156.646 219.136 156.915 219.832C157.185 220.528 157.32 221.385 157.32 222.403V223.114H148.911V221.665H155.616C155.616 221.049 155.493 220.5 155.246 220.017C155.005 219.534 154.659 219.153 154.21 218.874C153.764 218.594 153.239 218.455 152.633 218.455C151.965 218.455 151.388 218.62 150.9 218.952C150.417 219.278 150.045 219.705 149.785 220.23C149.524 220.756 149.394 221.319 149.394 221.92V222.886C149.394 223.71 149.536 224.409 149.82 224.982C150.109 225.55 150.509 225.983 151.021 226.281C151.532 226.575 152.126 226.722 152.803 226.722C153.244 226.722 153.641 226.66 153.996 226.537C154.356 226.409 154.666 226.22 154.927 225.969C155.187 225.713 155.388 225.396 155.531 225.017L157.15 225.472C156.979 226.021 156.693 226.504 156.29 226.92C155.888 227.332 155.391 227.654 154.799 227.886C154.207 228.114 153.542 228.227 152.803 228.227ZM161.546 221.438V228H159.87V217.091H161.489V218.795H161.631C161.887 218.241 162.275 217.796 162.796 217.46C163.317 217.119 163.989 216.949 164.813 216.949C165.552 216.949 166.198 217.1 166.752 217.403C167.306 217.702 167.737 218.156 168.045 218.767C168.353 219.373 168.506 220.14 168.506 221.068V228H166.83V221.182C166.83 220.325 166.608 219.657 166.163 219.179C165.718 218.696 165.107 218.455 164.33 218.455C163.795 218.455 163.317 218.571 162.896 218.803C162.479 219.035 162.15 219.373 161.908 219.818C161.667 220.263 161.546 220.803 161.546 221.438ZM176.314 217.091V218.511H170.66V217.091H176.314ZM172.308 214.477H173.984V224.875C173.984 225.348 174.053 225.704 174.19 225.94C174.332 226.172 174.512 226.329 174.73 226.409C174.952 226.485 175.187 226.523 175.433 226.523C175.618 226.523 175.769 226.513 175.887 226.494C176.006 226.471 176.1 226.452 176.172 226.438L176.512 227.943C176.399 227.986 176.24 228.028 176.037 228.071C175.833 228.118 175.575 228.142 175.262 228.142C174.789 228.142 174.325 228.04 173.87 227.837C173.421 227.633 173.047 227.323 172.748 226.906C172.455 226.49 172.308 225.964 172.308 225.33V214.477Z" fill="black"/>
<path d="M390.466 299H388.705C388.6 298.493 388.418 298.048 388.158 297.665C387.902 297.281 387.589 296.959 387.22 296.699C386.856 296.434 386.451 296.235 386.006 296.102C385.561 295.97 385.097 295.903 384.614 295.903C383.733 295.903 382.935 296.126 382.22 296.571C381.51 297.016 380.944 297.672 380.523 298.538C380.106 299.405 379.898 300.468 379.898 301.727C379.898 302.987 380.106 304.05 380.523 304.916C380.944 305.783 381.51 306.438 382.22 306.884C382.935 307.329 383.733 307.551 384.614 307.551C385.097 307.551 385.561 307.485 386.006 307.352C386.451 307.22 386.856 307.023 387.22 306.763C387.589 306.498 387.902 306.173 388.158 305.79C388.418 305.402 388.6 304.956 388.705 304.455H390.466C390.333 305.198 390.092 305.863 389.741 306.45C389.391 307.037 388.955 307.537 388.435 307.949C387.914 308.356 387.329 308.666 386.68 308.879C386.036 309.092 385.348 309.199 384.614 309.199C383.373 309.199 382.27 308.896 381.304 308.29C380.338 307.684 379.578 306.822 379.024 305.705C378.47 304.587 378.193 303.261 378.193 301.727C378.193 300.193 378.47 298.867 379.024 297.75C379.578 296.633 380.338 295.771 381.304 295.165C382.27 294.559 383.373 294.256 384.614 294.256C385.348 294.256 386.036 294.362 386.68 294.575C387.329 294.788 387.914 295.101 388.435 295.513C388.955 295.92 389.391 296.417 389.741 297.004C390.092 297.587 390.333 298.252 390.466 299ZM399.96 304.54V298.091H401.636V309H399.96V307.153H399.846C399.591 307.707 399.193 308.179 398.653 308.567C398.113 308.95 397.431 309.142 396.608 309.142C395.926 309.142 395.32 308.993 394.789 308.695C394.259 308.392 393.842 307.937 393.539 307.331C393.236 306.72 393.085 305.951 393.085 305.023V298.091H394.761V304.909C394.761 305.705 394.984 306.339 395.429 306.812C395.878 307.286 396.451 307.523 397.147 307.523C397.564 307.523 397.988 307.416 398.419 307.203C398.854 306.99 399.219 306.663 399.512 306.223C399.811 305.783 399.96 305.222 399.96 304.54ZM412.433 300.534L410.928 300.96C410.833 300.709 410.693 300.465 410.509 300.229C410.329 299.987 410.082 299.788 409.77 299.632C409.457 299.476 409.057 299.398 408.57 299.398C407.902 299.398 407.346 299.552 406.901 299.859C406.46 300.162 406.24 300.548 406.24 301.017C406.24 301.434 406.392 301.763 406.695 302.004C406.998 302.246 407.471 302.447 408.115 302.608L409.734 303.006C410.71 303.242 411.437 303.605 411.915 304.092C412.393 304.575 412.632 305.198 412.632 305.96C412.632 306.585 412.452 307.144 412.092 307.636C411.737 308.129 411.24 308.517 410.601 308.801C409.962 309.085 409.218 309.227 408.371 309.227C407.258 309.227 406.337 308.986 405.608 308.503C404.879 308.02 404.417 307.314 404.223 306.386L405.814 305.989C405.965 306.576 406.252 307.016 406.673 307.31C407.099 307.603 407.656 307.75 408.342 307.75C409.124 307.75 409.744 307.584 410.203 307.253C410.667 306.917 410.899 306.514 410.899 306.045C410.899 305.667 410.767 305.349 410.501 305.094C410.236 304.833 409.829 304.639 409.28 304.511L407.462 304.085C406.463 303.848 405.729 303.482 405.26 302.984C404.796 302.482 404.564 301.855 404.564 301.102C404.564 300.487 404.737 299.942 405.082 299.469C405.433 298.995 405.909 298.624 406.51 298.354C407.116 298.084 407.803 297.949 408.57 297.949C409.649 297.949 410.497 298.186 411.112 298.659C411.732 299.133 412.173 299.758 412.433 300.534ZM419.9 298.091V299.511H414.246V298.091H419.9ZM415.894 295.477H417.57V305.875C417.57 306.348 417.639 306.704 417.776 306.94C417.918 307.172 418.098 307.329 418.316 307.409C418.538 307.485 418.773 307.523 419.019 307.523C419.203 307.523 419.355 307.513 419.473 307.494C419.592 307.471 419.686 307.452 419.757 307.438L420.098 308.943C419.985 308.986 419.826 309.028 419.623 309.071C419.419 309.118 419.161 309.142 418.848 309.142C418.375 309.142 417.911 309.04 417.456 308.837C417.007 308.633 416.632 308.323 416.334 307.906C416.041 307.49 415.894 306.964 415.894 306.33V295.477ZM426.735 309.227C425.751 309.227 424.886 308.993 424.143 308.524C423.404 308.055 422.827 307.4 422.41 306.557C421.998 305.714 421.792 304.729 421.792 303.602C421.792 302.466 421.998 301.474 422.41 300.626C422.827 299.779 423.404 299.121 424.143 298.652C424.886 298.183 425.751 297.949 426.735 297.949C427.72 297.949 428.582 298.183 429.321 298.652C430.064 299.121 430.642 299.779 431.054 300.626C431.47 301.474 431.679 302.466 431.679 303.602C431.679 304.729 431.47 305.714 431.054 306.557C430.642 307.4 430.064 308.055 429.321 308.524C428.582 308.993 427.72 309.227 426.735 309.227ZM426.735 307.722C427.484 307.722 428.099 307.53 428.582 307.146C429.065 306.763 429.422 306.259 429.654 305.634C429.886 305.009 430.002 304.331 430.002 303.602C430.002 302.873 429.886 302.194 429.654 301.564C429.422 300.934 429.065 300.425 428.582 300.037C428.099 299.649 427.484 299.455 426.735 299.455C425.987 299.455 425.372 299.649 424.889 300.037C424.406 300.425 424.048 300.934 423.816 301.564C423.584 302.194 423.468 302.873 423.468 303.602C423.468 304.331 423.584 305.009 423.816 305.634C424.048 306.259 424.406 306.763 424.889 307.146C425.372 307.53 425.987 307.722 426.735 307.722ZM434.237 309V298.091H435.857V299.795H435.999C436.226 299.213 436.593 298.761 437.099 298.439C437.606 298.112 438.214 297.949 438.925 297.949C439.644 297.949 440.243 298.112 440.722 298.439C441.205 298.761 441.581 299.213 441.851 299.795H441.964C442.244 299.232 442.663 298.785 443.222 298.453C443.78 298.117 444.45 297.949 445.232 297.949C446.207 297.949 447.005 298.254 447.625 298.865C448.245 299.471 448.555 300.416 448.555 301.699V309H446.879V301.699C446.879 300.894 446.659 300.319 446.219 299.973C445.778 299.627 445.26 299.455 444.663 299.455C443.896 299.455 443.302 299.687 442.881 300.151C442.459 300.61 442.249 301.192 442.249 301.898V309H440.544V301.528C440.544 300.908 440.343 300.409 439.94 300.03C439.538 299.646 439.019 299.455 438.385 299.455C437.949 299.455 437.542 299.571 437.163 299.803C436.789 300.035 436.486 300.357 436.254 300.768C436.027 301.176 435.913 301.647 435.913 302.182V309H434.237ZM456.194 309.227C455.143 309.227 454.236 308.995 453.474 308.531C452.716 308.062 452.131 307.409 451.719 306.571C451.312 305.728 451.109 304.748 451.109 303.631C451.109 302.513 451.312 301.528 451.719 300.676C452.131 299.819 452.704 299.152 453.438 298.673C454.177 298.19 455.039 297.949 456.023 297.949C456.592 297.949 457.153 298.044 457.707 298.233C458.261 298.422 458.765 298.73 459.219 299.156C459.674 299.578 460.036 300.136 460.306 300.832C460.576 301.528 460.711 302.385 460.711 303.403V304.114H452.302V302.665H459.006C459.006 302.049 458.883 301.5 458.637 301.017C458.396 300.534 458.05 300.153 457.6 299.874C457.155 299.594 456.629 299.455 456.023 299.455C455.356 299.455 454.778 299.62 454.29 299.952C453.808 300.278 453.436 300.705 453.175 301.23C452.915 301.756 452.785 302.319 452.785 302.92V303.886C452.785 304.71 452.927 305.409 453.211 305.982C453.5 306.55 453.9 306.983 454.411 307.281C454.923 307.575 455.517 307.722 456.194 307.722C456.634 307.722 457.032 307.66 457.387 307.537C457.747 307.409 458.057 307.22 458.317 306.969C458.578 306.713 458.779 306.396 458.921 306.017L460.54 306.472C460.37 307.021 460.084 307.504 459.681 307.92C459.279 308.332 458.781 308.654 458.19 308.886C457.598 309.114 456.933 309.227 456.194 309.227ZM463.261 309V298.091H464.88V299.739H464.994C465.192 299.199 465.552 298.761 466.073 298.425C466.594 298.089 467.181 297.92 467.835 297.92C467.958 297.92 468.112 297.923 468.296 297.928C468.481 297.932 468.621 297.939 468.715 297.949V299.653C468.658 299.639 468.528 299.618 468.325 299.589C468.126 299.556 467.915 299.54 467.692 299.54C467.162 299.54 466.689 299.651 466.272 299.874C465.86 300.091 465.533 300.394 465.292 300.783C465.055 301.166 464.937 301.604 464.937 302.097V309H463.261Z" fill="black"/>
<line x1="287" y1="215.5" x2="353" y2="215.5" stroke="black"/>
<line x1="440.5" y1="129" x2="440.5" y2="163" stroke="black"/>
<line x1="353" y1="94.5" x2="189" y2="94.5" stroke="black"/>
<line x1="189.5" y1="94" x2="189.5" y2="182" stroke="black"/>
<line x1="287" y1="284.5" x2="353" y2="284.5" stroke="black"/>
<path d="M125.415 250H124.307L127.511 241.273H128.602L131.807 250H130.699L128.091 242.653H128.023L125.415 250ZM125.824 246.591H130.29V247.528H125.824V246.591ZM135.689 250.136C135.075 250.136 134.547 249.991 134.104 249.702C133.661 249.412 133.32 249.013 133.081 248.504C132.842 247.996 132.723 247.415 132.723 246.761C132.723 246.097 132.845 245.51 133.089 245.001C133.337 244.49 133.68 244.091 134.121 243.804C134.564 243.514 135.081 243.369 135.672 243.369C136.132 243.369 136.547 243.455 136.916 243.625C137.286 243.795 137.588 244.034 137.824 244.341C138.06 244.648 138.206 245.006 138.263 245.415H137.257C137.18 245.116 137.01 244.852 136.746 244.622C136.484 244.389 136.132 244.273 135.689 244.273C135.297 244.273 134.953 244.375 134.658 244.58C134.365 244.781 134.136 245.067 133.972 245.436C133.81 245.803 133.729 246.233 133.729 246.727C133.729 247.233 133.808 247.673 133.967 248.048C134.129 248.423 134.357 248.714 134.649 248.922C134.945 249.129 135.291 249.233 135.689 249.233C135.95 249.233 136.188 249.188 136.401 249.097C136.614 249.006 136.794 248.875 136.942 248.705C137.089 248.534 137.195 248.33 137.257 248.091H138.263C138.206 248.477 138.065 248.825 137.841 249.135C137.619 249.442 137.325 249.686 136.959 249.868C136.595 250.047 136.172 250.136 135.689 250.136ZM142.58 243.455V244.307H139.188V243.455H142.58ZM140.176 241.886H141.182V248.125C141.182 248.409 141.223 248.622 141.305 248.764C141.391 248.903 141.499 248.997 141.629 249.045C141.763 249.091 141.903 249.114 142.051 249.114C142.162 249.114 142.253 249.108 142.324 249.097C142.395 249.082 142.452 249.071 142.494 249.062L142.699 249.966C142.631 249.991 142.536 250.017 142.413 250.043C142.291 250.071 142.136 250.085 141.949 250.085C141.665 250.085 141.386 250.024 141.114 249.902C140.844 249.78 140.619 249.594 140.44 249.344C140.264 249.094 140.176 248.778 140.176 248.398V241.886ZM144.092 250V243.455H145.098V250H144.092ZM144.604 242.364C144.408 242.364 144.239 242.297 144.097 242.163C143.957 242.03 143.888 241.869 143.888 241.682C143.888 241.494 143.957 241.334 144.097 241.2C144.239 241.067 144.408 241 144.604 241C144.8 241 144.967 241.067 145.107 241.2C145.249 241.334 145.32 241.494 145.32 241.682C145.32 241.869 145.249 242.03 145.107 242.163C144.967 242.297 144.8 242.364 144.604 242.364ZM149.599 250.136C149.008 250.136 148.49 249.996 148.044 249.714C147.6 249.433 147.254 249.04 147.004 248.534C146.757 248.028 146.633 247.437 146.633 246.761C146.633 246.08 146.757 245.484 147.004 244.976C147.254 244.467 147.6 244.072 148.044 243.791C148.49 243.51 149.008 243.369 149.599 243.369C150.19 243.369 150.707 243.51 151.15 243.791C151.596 244.072 151.943 244.467 152.19 244.976C152.44 245.484 152.565 246.08 152.565 246.761C152.565 247.437 152.44 248.028 152.19 248.534C151.943 249.04 151.596 249.433 151.15 249.714C150.707 249.996 150.19 250.136 149.599 250.136ZM149.599 249.233C150.048 249.233 150.417 249.118 150.707 248.888C150.997 248.658 151.211 248.355 151.35 247.98C151.49 247.605 151.559 247.199 151.559 246.761C151.559 246.324 151.49 245.916 151.35 245.538C151.211 245.161 150.997 244.855 150.707 244.622C150.417 244.389 150.048 244.273 149.599 244.273C149.15 244.273 148.781 244.389 148.491 244.622C148.201 244.855 147.987 245.161 147.848 245.538C147.708 245.916 147.639 246.324 147.639 246.761C147.639 247.199 147.708 247.605 147.848 247.98C147.987 248.355 148.201 248.658 148.491 248.888C148.781 249.118 149.15 249.233 149.599 249.233ZM155.106 246.062V250H154.1V243.455H155.072V244.477H155.157C155.31 244.145 155.543 243.878 155.856 243.676C156.168 243.472 156.572 243.369 157.066 243.369C157.509 243.369 157.897 243.46 158.229 243.642C158.562 243.821 158.82 244.094 159.005 244.46C159.19 244.824 159.282 245.284 159.282 245.841V250H158.276V245.909C158.276 245.395 158.143 244.994 157.876 244.707C157.609 244.418 157.242 244.273 156.776 244.273C156.455 244.273 156.168 244.342 155.915 244.482C155.665 244.621 155.468 244.824 155.323 245.091C155.178 245.358 155.106 245.682 155.106 246.062ZM125.057 265V256.273H128.006C128.69 256.273 129.25 256.396 129.685 256.643C130.122 256.888 130.446 257.219 130.656 257.636C130.866 258.054 130.972 258.52 130.972 259.034C130.972 259.548 130.866 260.016 130.656 260.436C130.449 260.857 130.128 261.192 129.693 261.442C129.259 261.689 128.702 261.812 128.023 261.812H125.909V260.875H127.989C128.457 260.875 128.834 260.794 129.118 260.632C129.402 260.47 129.608 260.251 129.736 259.976C129.866 259.697 129.932 259.384 129.932 259.034C129.932 258.685 129.866 258.372 129.736 258.097C129.608 257.821 129.401 257.605 129.114 257.449C128.827 257.29 128.446 257.21 127.972 257.21H126.114V265H125.057ZM134.464 265.153C134.049 265.153 133.673 265.075 133.335 264.919C132.996 264.76 132.728 264.531 132.529 264.233C132.33 263.932 132.231 263.568 132.231 263.142C132.231 262.767 132.305 262.463 132.452 262.23C132.6 261.994 132.798 261.81 133.045 261.676C133.292 261.543 133.565 261.443 133.863 261.378C134.164 261.31 134.467 261.256 134.771 261.216C135.168 261.165 135.491 261.126 135.738 261.101C135.988 261.072 136.17 261.026 136.283 260.96C136.4 260.895 136.458 260.781 136.458 260.619V260.585C136.458 260.165 136.343 259.838 136.113 259.605C135.886 259.372 135.54 259.256 135.077 259.256C134.597 259.256 134.221 259.361 133.948 259.571C133.675 259.781 133.484 260.006 133.373 260.244L132.418 259.903C132.589 259.506 132.816 259.196 133.1 258.974C133.387 258.75 133.7 258.594 134.038 258.506C134.379 258.415 134.714 258.369 135.043 258.369C135.254 258.369 135.495 258.395 135.768 258.446C136.043 258.494 136.309 258.595 136.565 258.749C136.823 258.902 137.038 259.134 137.208 259.443C137.379 259.753 137.464 260.168 137.464 260.688V265H136.458V264.114H136.407C136.339 264.256 136.225 264.408 136.066 264.57C135.907 264.732 135.695 264.869 135.431 264.983C135.167 265.097 134.844 265.153 134.464 265.153ZM134.617 264.25C135.015 264.25 135.35 264.172 135.623 264.016C135.898 263.859 136.106 263.658 136.245 263.411C136.387 263.163 136.458 262.903 136.458 262.631V261.71C136.415 261.761 136.322 261.808 136.177 261.851C136.035 261.891 135.87 261.926 135.683 261.957C135.498 261.986 135.317 262.011 135.141 262.034C134.968 262.054 134.827 262.071 134.719 262.085C134.458 262.119 134.214 262.175 133.987 262.251C133.762 262.325 133.58 262.437 133.441 262.588C133.305 262.736 133.237 262.937 133.237 263.193C133.237 263.543 133.366 263.807 133.624 263.986C133.886 264.162 134.217 264.25 134.617 264.25ZM141.941 267.591C141.456 267.591 141.038 267.528 140.689 267.403C140.339 267.281 140.048 267.119 139.815 266.918C139.585 266.719 139.402 266.506 139.265 266.278L140.066 265.716C140.157 265.835 140.272 265.972 140.412 266.125C140.551 266.281 140.741 266.416 140.983 266.53C141.227 266.646 141.547 266.705 141.941 266.705C142.47 266.705 142.906 266.577 143.25 266.321C143.593 266.065 143.765 265.665 143.765 265.119V263.79H143.68C143.606 263.909 143.501 264.057 143.365 264.233C143.231 264.406 143.038 264.561 142.785 264.697C142.535 264.831 142.197 264.898 141.771 264.898C141.243 264.898 140.768 264.773 140.348 264.523C139.93 264.273 139.599 263.909 139.355 263.432C139.113 262.955 138.993 262.375 138.993 261.693C138.993 261.023 139.11 260.439 139.346 259.942C139.582 259.442 139.91 259.055 140.331 258.783C140.751 258.507 141.237 258.369 141.788 258.369C142.214 258.369 142.552 258.44 142.802 258.582C143.055 258.722 143.248 258.881 143.382 259.06C143.518 259.236 143.623 259.381 143.697 259.494H143.799V258.455H144.771V265.188C144.771 265.75 144.643 266.207 144.387 266.56C144.135 266.915 143.794 267.175 143.365 267.339C142.939 267.507 142.464 267.591 141.941 267.591ZM141.907 263.994C142.311 263.994 142.652 263.902 142.93 263.717C143.208 263.533 143.42 263.267 143.565 262.92C143.71 262.574 143.782 262.159 143.782 261.676C143.782 261.205 143.711 260.788 143.569 260.428C143.427 260.067 143.217 259.784 142.939 259.58C142.66 259.375 142.316 259.273 141.907 259.273C141.481 259.273 141.126 259.381 140.842 259.597C140.561 259.812 140.349 260.102 140.207 260.466C140.068 260.83 139.998 261.233 139.998 261.676C139.998 262.131 140.069 262.533 140.211 262.882C140.356 263.229 140.569 263.501 140.85 263.7C141.135 263.896 141.487 263.994 141.907 263.994ZM149.356 265.136C148.725 265.136 148.181 264.997 147.724 264.719C147.27 264.438 146.919 264.045 146.672 263.543C146.427 263.037 146.305 262.449 146.305 261.778C146.305 261.108 146.427 260.517 146.672 260.006C146.919 259.491 147.262 259.091 147.703 258.804C148.146 258.514 148.663 258.369 149.254 258.369C149.595 258.369 149.931 258.426 150.264 258.54C150.596 258.653 150.899 258.838 151.172 259.094C151.444 259.347 151.662 259.682 151.824 260.099C151.985 260.517 152.066 261.031 152.066 261.642V262.068H147.021V261.199H151.044C151.044 260.83 150.97 260.5 150.822 260.21C150.677 259.92 150.47 259.692 150.2 259.524C149.933 259.357 149.618 259.273 149.254 259.273C148.853 259.273 148.507 259.372 148.214 259.571C147.924 259.767 147.701 260.023 147.545 260.338C147.389 260.653 147.311 260.991 147.311 261.352V261.932C147.311 262.426 147.396 262.845 147.566 263.189C147.74 263.53 147.98 263.79 148.287 263.969C148.593 264.145 148.95 264.233 149.356 264.233C149.62 264.233 149.859 264.196 150.072 264.122C150.288 264.045 150.474 263.932 150.63 263.781C150.787 263.628 150.907 263.437 150.993 263.21L151.964 263.483C151.862 263.812 151.69 264.102 151.449 264.352C151.207 264.599 150.909 264.793 150.554 264.932C150.199 265.068 149.799 265.136 149.356 265.136ZM162.324 258.455L159.903 265H158.88L156.46 258.455H157.551L159.358 263.67H159.426L161.233 258.455H162.324ZM163.651 265V258.455H164.657V265H163.651ZM164.162 257.364C163.966 257.364 163.797 257.297 163.655 257.163C163.516 257.03 163.446 256.869 163.446 256.682C163.446 256.494 163.516 256.334 163.655 256.2C163.797 256.067 163.966 256 164.162 256C164.358 256 164.526 256.067 164.665 256.2C164.807 256.334 164.878 256.494 164.878 256.682C164.878 256.869 164.807 257.03 164.665 257.163C164.526 257.297 164.358 257.364 164.162 257.364ZM169.243 265.136C168.612 265.136 168.068 264.997 167.611 264.719C167.156 264.438 166.805 264.045 166.558 263.543C166.314 263.037 166.192 262.449 166.192 261.778C166.192 261.108 166.314 260.517 166.558 260.006C166.805 259.491 167.149 259.091 167.589 258.804C168.033 258.514 168.55 258.369 169.141 258.369C169.482 258.369 169.818 258.426 170.151 258.54C170.483 258.653 170.786 258.838 171.058 259.094C171.331 259.347 171.548 259.682 171.71 260.099C171.872 260.517 171.953 261.031 171.953 261.642V262.068H166.908V261.199H170.93C170.93 260.83 170.857 260.5 170.709 260.21C170.564 259.92 170.357 259.692 170.087 259.524C169.82 259.357 169.504 259.273 169.141 259.273C168.74 259.273 168.393 259.372 168.101 259.571C167.811 259.767 167.588 260.023 167.432 260.338C167.276 260.653 167.197 260.991 167.197 261.352V261.932C167.197 262.426 167.283 262.845 167.453 263.189C167.626 263.53 167.866 263.79 168.173 263.969C168.48 264.145 168.837 264.233 169.243 264.233C169.507 264.233 169.746 264.196 169.959 264.122C170.175 264.045 170.361 263.932 170.517 263.781C170.673 263.628 170.794 263.437 170.879 263.21L171.851 263.483C171.749 263.812 171.577 264.102 171.335 264.352C171.094 264.599 170.795 264.793 170.44 264.932C170.085 265.068 169.686 265.136 169.243 265.136ZM174.966 265L172.972 258.455H174.028L175.443 263.466H175.511L176.909 258.455H177.983L179.364 263.449H179.432L180.847 258.455H181.903L179.909 265H178.92L177.489 259.972H177.386L175.955 265H174.966Z" fill="#858585"/>
</svg>
