<?xml version="1.0" encoding="utf-8"?>
<!-- Generator: Adobe Illustrator 27.9.0, SVG Export Plug-In . SVG Version: 6.00 Build 0)  -->
<svg version="1.1" id="Layer_1" xmlns="http://www.w3.org/2000/svg" xmlns:xlink="http://www.w3.org/1999/xlink" x="0px" y="0px"
	 viewBox="0 0 450 450" style="enable-background:new 0 0 450 450;" xml:space="preserve">
<style type="text/css">
	.st0{fill:#FF491D;}
	.st1{fill:#FF947A;}
	.st2{fill:#0E65DA;}
	.st3{fill:#7BAFF4;}
	.st4{fill:#FFD00D;}
</style>
<g>
	<g>
		<g>
			<path class="st0" d="M199.326,153.281c0.072-1.072,0.143-2.072,0.143-3.143c0-27.145-22.027-49.146-49.203-49.146
				s-49.203,22.002-49.203,49.146h98.334v3.143C199.397,153.281,199.326,153.281,199.326,153.281z"/>
			<path class="st1" d="M150.194,199.284c26.104,0,47.486-20.287,49.131-46.003v-3.143h-98.334
				C100.992,177.283,123.018,199.284,150.194,199.284z"/>
		</g>
		<g>
			<path class="st2" d="M299.806,100.92c-27.176,0-49.203,22.002-49.203,49.146h98.477
				C349.08,122.993,327.053,100.92,299.806,100.92z"/>
			<path class="st3" d="M299.806,199.284c27.176,0,49.203-22.002,49.203-49.146h-98.406
				C250.603,177.283,272.629,199.284,299.806,199.284z"/>
		</g>
		<path class="st4" d="M250.603,215.071v10.072c0,14.144-11.514,25.573-25.603,25.573c-14.16,0-25.603-11.501-25.603-25.573v-10.072
			H100.92v10.072c0,68.362,55.64,123.937,124.08,123.937s124.08-55.575,124.08-123.937v-10.072H250.603z"/>
	</g>
</g>
</svg>
