<svg width="628" height="396" viewBox="0 0 628 396" fill="none" xmlns="http://www.w3.org/2000/svg">
<rect width="628" height="396" fill="white"/>
<rect x="45.5" y="53.5" width="537" height="299" fill="#F5F5F5" stroke="black"/>
<rect x="347.5" y="216.5" width="172" height="69" rx="4.5" fill="white" stroke="#0E65DA"/>
<rect x="347.5" y="112.5" width="172" height="69" rx="4.5" fill="white" stroke="#0E65DA"/>
<path d="M382.307 139.455H384.068V149.085C384.068 150.08 383.834 150.967 383.365 151.749C382.901 152.525 382.245 153.138 381.398 153.588C380.55 154.033 379.556 154.256 378.415 154.256C377.274 154.256 376.279 154.033 375.432 153.588C374.584 153.138 373.926 152.525 373.457 151.749C372.993 150.967 372.761 150.08 372.761 149.085V139.455H374.523V148.943C374.523 149.653 374.679 150.286 374.991 150.839C375.304 151.389 375.749 151.822 376.327 152.139C376.909 152.452 377.605 152.608 378.415 152.608C379.224 152.608 379.92 152.452 380.503 152.139C381.085 151.822 381.53 151.389 381.838 150.839C382.151 150.286 382.307 149.653 382.307 148.943V139.455ZM395.086 145.534L393.58 145.96C393.485 145.709 393.346 145.465 393.161 145.229C392.981 144.987 392.735 144.788 392.422 144.632C392.11 144.476 391.71 144.398 391.222 144.398C390.554 144.398 389.998 144.552 389.553 144.859C389.113 145.162 388.892 145.548 388.892 146.017C388.892 146.434 389.044 146.763 389.347 147.004C389.65 147.246 390.123 147.447 390.767 147.608L392.387 148.006C393.362 148.242 394.089 148.605 394.567 149.092C395.045 149.575 395.284 150.198 395.284 150.96C395.284 151.585 395.105 152.144 394.745 152.636C394.39 153.129 393.892 153.517 393.253 153.801C392.614 154.085 391.871 154.227 391.023 154.227C389.91 154.227 388.989 153.986 388.26 153.503C387.531 153.02 387.069 152.314 386.875 151.386L388.466 150.989C388.618 151.576 388.904 152.016 389.326 152.31C389.752 152.603 390.308 152.75 390.995 152.75C391.776 152.75 392.396 152.584 392.855 152.253C393.319 151.917 393.551 151.514 393.551 151.045C393.551 150.667 393.419 150.349 393.154 150.094C392.889 149.833 392.481 149.639 391.932 149.511L390.114 149.085C389.115 148.848 388.381 148.482 387.912 147.984C387.448 147.482 387.216 146.855 387.216 146.102C387.216 145.487 387.389 144.942 387.735 144.469C388.085 143.995 388.561 143.624 389.162 143.354C389.768 143.084 390.455 142.949 391.222 142.949C392.301 142.949 393.149 143.186 393.765 143.659C394.385 144.133 394.825 144.758 395.086 145.534ZM402.381 154.227C401.33 154.227 400.424 153.995 399.661 153.531C398.904 153.062 398.319 152.409 397.907 151.571C397.5 150.728 397.296 149.748 397.296 148.631C397.296 147.513 397.5 146.528 397.907 145.676C398.319 144.819 398.892 144.152 399.626 143.673C400.364 143.19 401.226 142.949 402.211 142.949C402.779 142.949 403.34 143.044 403.894 143.233C404.448 143.422 404.952 143.73 405.407 144.156C405.862 144.578 406.224 145.136 406.494 145.832C406.763 146.528 406.898 147.385 406.898 148.403V149.114H398.489V147.665H405.194C405.194 147.049 405.071 146.5 404.825 146.017C404.583 145.534 404.237 145.153 403.788 144.874C403.343 144.594 402.817 144.455 402.211 144.455C401.543 144.455 400.966 144.62 400.478 144.952C399.995 145.278 399.623 145.705 399.363 146.23C399.103 146.756 398.972 147.319 398.972 147.92V148.886C398.972 149.71 399.114 150.409 399.398 150.982C399.687 151.55 400.087 151.983 400.599 152.281C401.11 152.575 401.704 152.722 402.381 152.722C402.822 152.722 403.219 152.66 403.575 152.537C403.934 152.409 404.245 152.22 404.505 151.969C404.765 151.713 404.967 151.396 405.109 151.017L406.728 151.472C406.558 152.021 406.271 152.504 405.869 152.92C405.466 153.332 404.969 153.654 404.377 153.886C403.785 154.114 403.12 154.227 402.381 154.227ZM409.448 154V143.091H411.067V144.739H411.181C411.38 144.199 411.74 143.761 412.261 143.425C412.781 143.089 413.369 142.92 414.022 142.92C414.145 142.92 414.299 142.923 414.484 142.928C414.668 142.932 414.808 142.939 414.903 142.949V144.653C414.846 144.639 414.716 144.618 414.512 144.589C414.313 144.556 414.103 144.54 413.88 144.54C413.35 144.54 412.876 144.651 412.46 144.874C412.048 145.091 411.721 145.394 411.479 145.783C411.243 146.166 411.124 146.604 411.124 147.097V154H409.448Z" fill="black"/>
<rect x="108.5" y="147.5" width="172" height="103" rx="4.5" fill="white" stroke="#FF491D"/>
<path d="M119.761 177V162.455H128.54V164.017H121.523V168.932H128.085V170.494H121.523V175.438H128.653V177H119.761ZM140.408 166.091L136.374 177H134.669L130.635 166.091H132.453L135.464 174.784H135.578L138.589 166.091H140.408ZM146.803 177.227C145.752 177.227 144.845 176.995 144.083 176.531C143.326 176.062 142.741 175.409 142.329 174.571C141.922 173.728 141.718 172.748 141.718 171.631C141.718 170.513 141.922 169.528 142.329 168.676C142.741 167.819 143.314 167.152 144.048 166.673C144.786 166.19 145.648 165.949 146.633 165.949C147.201 165.949 147.762 166.044 148.316 166.233C148.87 166.422 149.374 166.73 149.829 167.156C150.283 167.578 150.646 168.136 150.915 168.832C151.185 169.528 151.32 170.385 151.32 171.403V172.114H142.911V170.665H149.616C149.616 170.049 149.493 169.5 149.246 169.017C149.005 168.534 148.659 168.153 148.21 167.874C147.764 167.594 147.239 167.455 146.633 167.455C145.965 167.455 145.388 167.62 144.9 167.952C144.417 168.278 144.045 168.705 143.785 169.23C143.524 169.756 143.394 170.319 143.394 170.92V171.886C143.394 172.71 143.536 173.409 143.82 173.982C144.109 174.55 144.509 174.983 145.021 175.281C145.532 175.575 146.126 175.722 146.803 175.722C147.244 175.722 147.641 175.66 147.996 175.537C148.356 175.409 148.666 175.22 148.927 174.969C149.187 174.713 149.388 174.396 149.531 174.017L151.15 174.472C150.979 175.021 150.693 175.504 150.29 175.92C149.888 176.332 149.391 176.654 148.799 176.886C148.207 177.114 147.542 177.227 146.803 177.227ZM155.546 170.438V177H153.87V166.091H155.489V167.795H155.631C155.887 167.241 156.275 166.796 156.796 166.46C157.317 166.119 157.989 165.949 158.813 165.949C159.552 165.949 160.198 166.1 160.752 166.403C161.306 166.702 161.737 167.156 162.045 167.767C162.353 168.373 162.506 169.14 162.506 170.068V177H160.83V170.182C160.83 169.325 160.608 168.657 160.163 168.179C159.718 167.696 159.107 167.455 158.33 167.455C157.795 167.455 157.317 167.571 156.896 167.803C156.479 168.035 156.15 168.373 155.908 168.818C155.667 169.263 155.546 169.803 155.546 170.438ZM170.314 166.091V167.511H164.66V166.091H170.314ZM166.308 163.477H167.984V173.875C167.984 174.348 168.053 174.704 168.19 174.94C168.332 175.172 168.512 175.329 168.73 175.409C168.952 175.485 169.187 175.523 169.433 175.523C169.618 175.523 169.769 175.513 169.887 175.494C170.006 175.471 170.1 175.452 170.172 175.438L170.512 176.943C170.399 176.986 170.24 177.028 170.037 177.071C169.833 177.118 169.575 177.142 169.262 177.142C168.789 177.142 168.325 177.04 167.87 176.837C167.421 176.633 167.047 176.323 166.748 175.906C166.455 175.49 166.308 174.964 166.308 174.33V163.477Z" fill="black"/>
<path d="M384.466 248H382.705C382.6 247.493 382.418 247.048 382.158 246.665C381.902 246.281 381.589 245.959 381.22 245.699C380.856 245.434 380.451 245.235 380.006 245.102C379.561 244.97 379.097 244.903 378.614 244.903C377.733 244.903 376.935 245.126 376.22 245.571C375.51 246.016 374.944 246.672 374.523 247.538C374.106 248.405 373.898 249.468 373.898 250.727C373.898 251.987 374.106 253.05 374.523 253.916C374.944 254.783 375.51 255.438 376.22 255.884C376.935 256.329 377.733 256.551 378.614 256.551C379.097 256.551 379.561 256.485 380.006 256.352C380.451 256.22 380.856 256.023 381.22 255.763C381.589 255.498 381.902 255.173 382.158 254.79C382.418 254.402 382.6 253.956 382.705 253.455H384.466C384.333 254.198 384.092 254.863 383.741 255.45C383.391 256.037 382.955 256.537 382.435 256.949C381.914 257.356 381.329 257.666 380.68 257.879C380.036 258.092 379.348 258.199 378.614 258.199C377.373 258.199 376.27 257.896 375.304 257.29C374.338 256.684 373.578 255.822 373.024 254.705C372.47 253.587 372.193 252.261 372.193 250.727C372.193 249.193 372.47 247.867 373.024 246.75C373.578 245.633 374.338 244.771 375.304 244.165C376.27 243.559 377.373 243.256 378.614 243.256C379.348 243.256 380.036 243.362 380.68 243.575C381.329 243.788 381.914 244.101 382.435 244.513C382.955 244.92 383.391 245.417 383.741 246.004C384.092 246.587 384.333 247.252 384.466 248ZM393.96 253.54V247.091H395.636V258H393.96V256.153H393.846C393.591 256.707 393.193 257.179 392.653 257.567C392.113 257.95 391.431 258.142 390.608 258.142C389.926 258.142 389.32 257.993 388.789 257.695C388.259 257.392 387.842 256.937 387.539 256.331C387.236 255.72 387.085 254.951 387.085 254.023V247.091H388.761V253.909C388.761 254.705 388.984 255.339 389.429 255.812C389.878 256.286 390.451 256.523 391.147 256.523C391.564 256.523 391.988 256.416 392.419 256.203C392.854 255.99 393.219 255.663 393.512 255.223C393.811 254.783 393.96 254.222 393.96 253.54ZM406.433 249.534L404.928 249.96C404.833 249.709 404.693 249.465 404.509 249.229C404.329 248.987 404.082 248.788 403.77 248.632C403.457 248.476 403.057 248.398 402.57 248.398C401.902 248.398 401.346 248.552 400.901 248.859C400.46 249.162 400.24 249.548 400.24 250.017C400.24 250.434 400.392 250.763 400.695 251.004C400.998 251.246 401.471 251.447 402.115 251.608L403.734 252.006C404.71 252.242 405.437 252.605 405.915 253.092C406.393 253.575 406.632 254.198 406.632 254.96C406.632 255.585 406.452 256.144 406.092 256.636C405.737 257.129 405.24 257.517 404.601 257.801C403.962 258.085 403.218 258.227 402.371 258.227C401.258 258.227 400.337 257.986 399.608 257.503C398.879 257.02 398.417 256.314 398.223 255.386L399.814 254.989C399.965 255.576 400.252 256.016 400.673 256.31C401.099 256.603 401.656 256.75 402.342 256.75C403.124 256.75 403.744 256.584 404.203 256.253C404.667 255.917 404.899 255.514 404.899 255.045C404.899 254.667 404.767 254.349 404.501 254.094C404.236 253.833 403.829 253.639 403.28 253.511L401.462 253.085C400.463 252.848 399.729 252.482 399.26 251.984C398.796 251.482 398.564 250.855 398.564 250.102C398.564 249.487 398.737 248.942 399.082 248.469C399.433 247.995 399.909 247.624 400.51 247.354C401.116 247.084 401.803 246.949 402.57 246.949C403.649 246.949 404.497 247.186 405.112 247.659C405.732 248.133 406.173 248.758 406.433 249.534ZM413.9 247.091V248.511H408.246V247.091H413.9ZM409.894 244.477H411.57V254.875C411.57 255.348 411.639 255.704 411.776 255.94C411.918 256.172 412.098 256.329 412.316 256.409C412.538 256.485 412.773 256.523 413.019 256.523C413.203 256.523 413.355 256.513 413.473 256.494C413.592 256.471 413.686 256.452 413.757 256.438L414.098 257.943C413.985 257.986 413.826 258.028 413.623 258.071C413.419 258.118 413.161 258.142 412.848 258.142C412.375 258.142 411.911 258.04 411.456 257.837C411.007 257.633 410.632 257.323 410.334 256.906C410.041 256.49 409.894 255.964 409.894 255.33V244.477ZM420.735 258.227C419.751 258.227 418.886 257.993 418.143 257.524C417.404 257.055 416.827 256.4 416.41 255.557C415.998 254.714 415.792 253.729 415.792 252.602C415.792 251.466 415.998 250.474 416.41 249.626C416.827 248.779 417.404 248.121 418.143 247.652C418.886 247.183 419.751 246.949 420.735 246.949C421.72 246.949 422.582 247.183 423.321 247.652C424.064 248.121 424.642 248.779 425.054 249.626C425.47 250.474 425.679 251.466 425.679 252.602C425.679 253.729 425.47 254.714 425.054 255.557C424.642 256.4 424.064 257.055 423.321 257.524C422.582 257.993 421.72 258.227 420.735 258.227ZM420.735 256.722C421.484 256.722 422.099 256.53 422.582 256.146C423.065 255.763 423.422 255.259 423.654 254.634C423.886 254.009 424.002 253.331 424.002 252.602C424.002 251.873 423.886 251.194 423.654 250.564C423.422 249.934 423.065 249.425 422.582 249.037C422.099 248.649 421.484 248.455 420.735 248.455C419.987 248.455 419.372 248.649 418.889 249.037C418.406 249.425 418.048 249.934 417.816 250.564C417.584 251.194 417.468 251.873 417.468 252.602C417.468 253.331 417.584 254.009 417.816 254.634C418.048 255.259 418.406 255.763 418.889 256.146C419.372 256.53 419.987 256.722 420.735 256.722ZM428.237 258V247.091H429.857V248.795H429.999C430.226 248.213 430.593 247.761 431.099 247.439C431.606 247.112 432.214 246.949 432.925 246.949C433.644 246.949 434.243 247.112 434.722 247.439C435.205 247.761 435.581 248.213 435.851 248.795H435.964C436.244 248.232 436.663 247.785 437.222 247.453C437.78 247.117 438.45 246.949 439.232 246.949C440.207 246.949 441.005 247.254 441.625 247.865C442.245 248.471 442.555 249.416 442.555 250.699V258H440.879V250.699C440.879 249.894 440.659 249.319 440.219 248.973C439.778 248.627 439.26 248.455 438.663 248.455C437.896 248.455 437.302 248.687 436.881 249.151C436.459 249.61 436.249 250.192 436.249 250.898V258H434.544V250.528C434.544 249.908 434.343 249.409 433.94 249.03C433.538 248.646 433.019 248.455 432.385 248.455C431.949 248.455 431.542 248.571 431.163 248.803C430.789 249.035 430.486 249.357 430.254 249.768C430.027 250.176 429.913 250.647 429.913 251.182V258H428.237ZM450.194 258.227C449.143 258.227 448.236 257.995 447.474 257.531C446.716 257.062 446.131 256.409 445.719 255.571C445.312 254.728 445.109 253.748 445.109 252.631C445.109 251.513 445.312 250.528 445.719 249.676C446.131 248.819 446.704 248.152 447.438 247.673C448.177 247.19 449.039 246.949 450.023 246.949C450.592 246.949 451.153 247.044 451.707 247.233C452.261 247.422 452.765 247.73 453.219 248.156C453.674 248.578 454.036 249.136 454.306 249.832C454.576 250.528 454.711 251.385 454.711 252.403V253.114H446.302V251.665H453.006C453.006 251.049 452.883 250.5 452.637 250.017C452.396 249.534 452.05 249.153 451.6 248.874C451.155 248.594 450.629 248.455 450.023 248.455C449.356 248.455 448.778 248.62 448.29 248.952C447.808 249.278 447.436 249.705 447.175 250.23C446.915 250.756 446.785 251.319 446.785 251.92V252.886C446.785 253.71 446.927 254.409 447.211 254.982C447.5 255.55 447.9 255.983 448.411 256.281C448.923 256.575 449.517 256.722 450.194 256.722C450.634 256.722 451.032 256.66 451.387 256.537C451.747 256.409 452.057 256.22 452.317 255.969C452.578 255.713 452.779 255.396 452.921 255.017L454.54 255.472C454.37 256.021 454.084 256.504 453.681 256.92C453.279 257.332 452.781 257.654 452.19 257.886C451.598 258.114 450.933 258.227 450.194 258.227ZM457.261 258V247.091H458.88V248.739H458.994C459.192 248.199 459.552 247.761 460.073 247.425C460.594 247.089 461.181 246.92 461.835 246.92C461.958 246.92 462.112 246.923 462.296 246.928C462.481 246.932 462.621 246.939 462.715 246.949V248.653C462.658 248.639 462.528 248.618 462.325 248.589C462.126 248.556 461.915 248.54 461.692 248.54C461.162 248.54 460.689 248.651 460.272 248.874C459.86 249.091 459.533 249.394 459.292 249.783C459.055 250.166 458.937 250.604 458.937 251.097V258H457.261Z" fill="black"/>
<line x1="281" y1="164.5" x2="347" y2="164.5" stroke="black"/>
<line x1="281" y1="233.5" x2="347" y2="233.5" stroke="black"/>
<path d="M119.415 199H118.307L121.511 190.273H122.602L125.807 199H124.699L122.091 191.653H122.023L119.415 199ZM119.824 195.591H124.29V196.528H119.824V195.591ZM129.689 199.136C129.075 199.136 128.547 198.991 128.104 198.702C127.661 198.412 127.32 198.013 127.081 197.504C126.842 196.996 126.723 196.415 126.723 195.761C126.723 195.097 126.845 194.51 127.089 194.001C127.337 193.49 127.68 193.091 128.121 192.804C128.564 192.514 129.081 192.369 129.672 192.369C130.132 192.369 130.547 192.455 130.916 192.625C131.286 192.795 131.588 193.034 131.824 193.341C132.06 193.648 132.206 194.006 132.263 194.415H131.257C131.18 194.116 131.01 193.852 130.746 193.622C130.484 193.389 130.132 193.273 129.689 193.273C129.297 193.273 128.953 193.375 128.658 193.58C128.365 193.781 128.136 194.067 127.972 194.436C127.81 194.803 127.729 195.233 127.729 195.727C127.729 196.233 127.808 196.673 127.967 197.048C128.129 197.423 128.357 197.714 128.649 197.922C128.945 198.129 129.291 198.233 129.689 198.233C129.95 198.233 130.188 198.188 130.401 198.097C130.614 198.006 130.794 197.875 130.942 197.705C131.089 197.534 131.195 197.33 131.257 197.091H132.263C132.206 197.477 132.065 197.825 131.841 198.135C131.619 198.442 131.325 198.686 130.959 198.868C130.595 199.047 130.172 199.136 129.689 199.136ZM136.58 192.455V193.307H133.188V192.455H136.58ZM134.176 190.886H135.182V197.125C135.182 197.409 135.223 197.622 135.305 197.764C135.391 197.903 135.499 197.997 135.629 198.045C135.763 198.091 135.903 198.114 136.051 198.114C136.162 198.114 136.253 198.108 136.324 198.097C136.395 198.082 136.452 198.071 136.494 198.062L136.699 198.966C136.631 198.991 136.536 199.017 136.413 199.043C136.291 199.071 136.136 199.085 135.949 199.085C135.665 199.085 135.386 199.024 135.114 198.902C134.844 198.78 134.619 198.594 134.44 198.344C134.264 198.094 134.176 197.778 134.176 197.398V190.886ZM138.092 199V192.455H139.098V199H138.092ZM138.604 191.364C138.408 191.364 138.239 191.297 138.097 191.163C137.957 191.03 137.888 190.869 137.888 190.682C137.888 190.494 137.957 190.334 138.097 190.2C138.239 190.067 138.408 190 138.604 190C138.8 190 138.967 190.067 139.107 190.2C139.249 190.334 139.32 190.494 139.32 190.682C139.32 190.869 139.249 191.03 139.107 191.163C138.967 191.297 138.8 191.364 138.604 191.364ZM143.599 199.136C143.008 199.136 142.49 198.996 142.044 198.714C141.6 198.433 141.254 198.04 141.004 197.534C140.757 197.028 140.633 196.437 140.633 195.761C140.633 195.08 140.757 194.484 141.004 193.976C141.254 193.467 141.6 193.072 142.044 192.791C142.49 192.51 143.008 192.369 143.599 192.369C144.19 192.369 144.707 192.51 145.15 192.791C145.596 193.072 145.943 193.467 146.19 193.976C146.44 194.484 146.565 195.08 146.565 195.761C146.565 196.437 146.44 197.028 146.19 197.534C145.943 198.04 145.596 198.433 145.15 198.714C144.707 198.996 144.19 199.136 143.599 199.136ZM143.599 198.233C144.048 198.233 144.417 198.118 144.707 197.888C144.997 197.658 145.211 197.355 145.35 196.98C145.49 196.605 145.559 196.199 145.559 195.761C145.559 195.324 145.49 194.916 145.35 194.538C145.211 194.161 144.997 193.855 144.707 193.622C144.417 193.389 144.048 193.273 143.599 193.273C143.15 193.273 142.781 193.389 142.491 193.622C142.201 193.855 141.987 194.161 141.848 194.538C141.708 194.916 141.639 195.324 141.639 195.761C141.639 196.199 141.708 196.605 141.848 196.98C141.987 197.355 142.201 197.658 142.491 197.888C142.781 198.118 143.15 198.233 143.599 198.233ZM149.106 195.062V199H148.1V192.455H149.072V193.477H149.157C149.31 193.145 149.543 192.878 149.856 192.676C150.168 192.472 150.572 192.369 151.066 192.369C151.509 192.369 151.897 192.46 152.229 192.642C152.562 192.821 152.82 193.094 153.005 193.46C153.19 193.824 153.282 194.284 153.282 194.841V199H152.276V194.909C152.276 194.395 152.143 193.994 151.876 193.707C151.609 193.418 151.242 193.273 150.776 193.273C150.455 193.273 150.168 193.342 149.915 193.482C149.665 193.621 149.468 193.824 149.323 194.091C149.178 194.358 149.106 194.682 149.106 195.062ZM119.057 214V205.273H122.006C122.69 205.273 123.25 205.396 123.685 205.643C124.122 205.888 124.446 206.219 124.656 206.636C124.866 207.054 124.972 207.52 124.972 208.034C124.972 208.548 124.866 209.016 124.656 209.436C124.449 209.857 124.128 210.192 123.693 210.442C123.259 210.689 122.702 210.812 122.023 210.812H119.909V209.875H121.989C122.457 209.875 122.834 209.794 123.118 209.632C123.402 209.47 123.608 209.251 123.736 208.976C123.866 208.697 123.932 208.384 123.932 208.034C123.932 207.685 123.866 207.372 123.736 207.097C123.608 206.821 123.401 206.605 123.114 206.449C122.827 206.29 122.446 206.21 121.972 206.21H120.114V214H119.057ZM128.464 214.153C128.049 214.153 127.673 214.075 127.335 213.919C126.996 213.76 126.728 213.531 126.529 213.233C126.33 212.932 126.231 212.568 126.231 212.142C126.231 211.767 126.305 211.463 126.452 211.23C126.6 210.994 126.798 210.81 127.045 210.676C127.292 210.543 127.565 210.443 127.863 210.378C128.164 210.31 128.467 210.256 128.771 210.216C129.168 210.165 129.491 210.126 129.738 210.101C129.988 210.072 130.17 210.026 130.283 209.96C130.4 209.895 130.458 209.781 130.458 209.619V209.585C130.458 209.165 130.343 208.838 130.113 208.605C129.886 208.372 129.54 208.256 129.077 208.256C128.597 208.256 128.221 208.361 127.948 208.571C127.675 208.781 127.484 209.006 127.373 209.244L126.418 208.903C126.589 208.506 126.816 208.196 127.1 207.974C127.387 207.75 127.7 207.594 128.038 207.506C128.379 207.415 128.714 207.369 129.043 207.369C129.254 207.369 129.495 207.395 129.768 207.446C130.043 207.494 130.309 207.595 130.565 207.749C130.823 207.902 131.038 208.134 131.208 208.443C131.379 208.753 131.464 209.168 131.464 209.688V214H130.458V213.114H130.407C130.339 213.256 130.225 213.408 130.066 213.57C129.907 213.732 129.695 213.869 129.431 213.983C129.167 214.097 128.844 214.153 128.464 214.153ZM128.617 213.25C129.015 213.25 129.35 213.172 129.623 213.016C129.898 212.859 130.106 212.658 130.245 212.411C130.387 212.163 130.458 211.903 130.458 211.631V210.71C130.415 210.761 130.322 210.808 130.177 210.851C130.035 210.891 129.87 210.926 129.683 210.957C129.498 210.986 129.317 211.011 129.141 211.034C128.968 211.054 128.827 211.071 128.719 211.085C128.458 211.119 128.214 211.175 127.987 211.251C127.762 211.325 127.58 211.437 127.441 211.588C127.305 211.736 127.237 211.937 127.237 212.193C127.237 212.543 127.366 212.807 127.624 212.986C127.886 213.162 128.217 213.25 128.617 213.25ZM135.941 216.591C135.456 216.591 135.038 216.528 134.689 216.403C134.339 216.281 134.048 216.119 133.815 215.918C133.585 215.719 133.402 215.506 133.265 215.278L134.066 214.716C134.157 214.835 134.272 214.972 134.412 215.125C134.551 215.281 134.741 215.416 134.983 215.53C135.227 215.646 135.547 215.705 135.941 215.705C136.47 215.705 136.906 215.577 137.25 215.321C137.593 215.065 137.765 214.665 137.765 214.119V212.79H137.68C137.606 212.909 137.501 213.057 137.365 213.233C137.231 213.406 137.038 213.561 136.785 213.697C136.535 213.831 136.197 213.898 135.771 213.898C135.243 213.898 134.768 213.773 134.348 213.523C133.93 213.273 133.599 212.909 133.355 212.432C133.113 211.955 132.993 211.375 132.993 210.693C132.993 210.023 133.11 209.439 133.346 208.942C133.582 208.442 133.91 208.055 134.331 207.783C134.751 207.507 135.237 207.369 135.788 207.369C136.214 207.369 136.552 207.44 136.802 207.582C137.055 207.722 137.248 207.881 137.382 208.06C137.518 208.236 137.623 208.381 137.697 208.494H137.799V207.455H138.771V214.188C138.771 214.75 138.643 215.207 138.387 215.56C138.135 215.915 137.794 216.175 137.365 216.339C136.939 216.507 136.464 216.591 135.941 216.591ZM135.907 212.994C136.311 212.994 136.652 212.902 136.93 212.717C137.208 212.533 137.42 212.267 137.565 211.92C137.71 211.574 137.782 211.159 137.782 210.676C137.782 210.205 137.711 209.788 137.569 209.428C137.427 209.067 137.217 208.784 136.939 208.58C136.66 208.375 136.316 208.273 135.907 208.273C135.481 208.273 135.126 208.381 134.842 208.597C134.561 208.812 134.349 209.102 134.207 209.466C134.068 209.83 133.998 210.233 133.998 210.676C133.998 211.131 134.069 211.533 134.211 211.882C134.356 212.229 134.569 212.501 134.85 212.7C135.135 212.896 135.487 212.994 135.907 212.994ZM143.356 214.136C142.725 214.136 142.181 213.997 141.724 213.719C141.27 213.438 140.919 213.045 140.672 212.543C140.427 212.037 140.305 211.449 140.305 210.778C140.305 210.108 140.427 209.517 140.672 209.006C140.919 208.491 141.262 208.091 141.703 207.804C142.146 207.514 142.663 207.369 143.254 207.369C143.595 207.369 143.931 207.426 144.264 207.54C144.596 207.653 144.899 207.838 145.172 208.094C145.444 208.347 145.662 208.682 145.824 209.099C145.985 209.517 146.066 210.031 146.066 210.642V211.068H141.021V210.199H145.044C145.044 209.83 144.97 209.5 144.822 209.21C144.677 208.92 144.47 208.692 144.2 208.524C143.933 208.357 143.618 208.273 143.254 208.273C142.853 208.273 142.507 208.372 142.214 208.571C141.924 208.767 141.701 209.023 141.545 209.338C141.389 209.653 141.311 209.991 141.311 210.352V210.932C141.311 211.426 141.396 211.845 141.566 212.189C141.74 212.53 141.98 212.79 142.287 212.969C142.593 213.145 142.95 213.233 143.356 213.233C143.62 213.233 143.859 213.196 144.072 213.122C144.288 213.045 144.474 212.932 144.63 212.781C144.787 212.628 144.907 212.437 144.993 212.21L145.964 212.483C145.862 212.812 145.69 213.102 145.449 213.352C145.207 213.599 144.909 213.793 144.554 213.932C144.199 214.068 143.799 214.136 143.356 214.136ZM156.324 207.455L153.903 214H152.88L150.46 207.455H151.551L153.358 212.67H153.426L155.233 207.455H156.324ZM157.651 214V207.455H158.657V214H157.651ZM158.162 206.364C157.966 206.364 157.797 206.297 157.655 206.163C157.516 206.03 157.446 205.869 157.446 205.682C157.446 205.494 157.516 205.334 157.655 205.2C157.797 205.067 157.966 205 158.162 205C158.358 205 158.526 205.067 158.665 205.2C158.807 205.334 158.878 205.494 158.878 205.682C158.878 205.869 158.807 206.03 158.665 206.163C158.526 206.297 158.358 206.364 158.162 206.364ZM163.243 214.136C162.612 214.136 162.068 213.997 161.611 213.719C161.156 213.438 160.805 213.045 160.558 212.543C160.314 212.037 160.192 211.449 160.192 210.778C160.192 210.108 160.314 209.517 160.558 209.006C160.805 208.491 161.149 208.091 161.589 207.804C162.033 207.514 162.55 207.369 163.141 207.369C163.482 207.369 163.818 207.426 164.151 207.54C164.483 207.653 164.786 207.838 165.058 208.094C165.331 208.347 165.548 208.682 165.71 209.099C165.872 209.517 165.953 210.031 165.953 210.642V211.068H160.908V210.199H164.93C164.93 209.83 164.857 209.5 164.709 209.21C164.564 208.92 164.357 208.692 164.087 208.524C163.82 208.357 163.504 208.273 163.141 208.273C162.74 208.273 162.393 208.372 162.101 208.571C161.811 208.767 161.588 209.023 161.432 209.338C161.276 209.653 161.197 209.991 161.197 210.352V210.932C161.197 211.426 161.283 211.845 161.453 212.189C161.626 212.53 161.866 212.79 162.173 212.969C162.48 213.145 162.837 213.233 163.243 213.233C163.507 213.233 163.746 213.196 163.959 213.122C164.175 213.045 164.361 212.932 164.517 212.781C164.673 212.628 164.794 212.437 164.879 212.21L165.851 212.483C165.749 212.812 165.577 213.102 165.335 213.352C165.094 213.599 164.795 213.793 164.44 213.932C164.085 214.068 163.686 214.136 163.243 214.136ZM168.966 214L166.972 207.455H168.028L169.443 212.466H169.511L170.909 207.455H171.983L173.364 212.449H173.432L174.847 207.455H175.903L173.909 214H172.92L171.489 208.972H171.386L169.955 214H168.966ZM123.83 222.455C123.778 222.023 123.571 221.688 123.207 221.449C122.844 221.21 122.398 221.091 121.869 221.091C121.483 221.091 121.145 221.153 120.855 221.278C120.568 221.403 120.344 221.575 120.182 221.794C120.023 222.013 119.943 222.261 119.943 222.54C119.943 222.773 119.999 222.973 120.109 223.141C120.223 223.305 120.368 223.443 120.544 223.554C120.72 223.662 120.905 223.751 121.098 223.822C121.291 223.891 121.469 223.946 121.631 223.989L122.517 224.227C122.744 224.287 122.997 224.369 123.276 224.474C123.557 224.58 123.825 224.723 124.081 224.905C124.339 225.084 124.553 225.314 124.72 225.595C124.888 225.876 124.972 226.222 124.972 226.631C124.972 227.102 124.848 227.528 124.601 227.909C124.357 228.29 123.999 228.592 123.527 228.817C123.058 229.041 122.489 229.153 121.818 229.153C121.193 229.153 120.652 229.053 120.195 228.851C119.74 228.649 119.382 228.368 119.121 228.007C118.862 227.646 118.716 227.227 118.682 226.75H119.773C119.801 227.08 119.912 227.352 120.105 227.568C120.301 227.781 120.548 227.94 120.847 228.045C121.148 228.148 121.472 228.199 121.818 228.199C122.222 228.199 122.584 228.134 122.905 228.003C123.226 227.869 123.48 227.685 123.668 227.449C123.855 227.21 123.949 226.932 123.949 226.614C123.949 226.324 123.868 226.088 123.706 225.906C123.544 225.724 123.331 225.577 123.067 225.463C122.803 225.349 122.517 225.25 122.21 225.165L121.136 224.858C120.455 224.662 119.915 224.382 119.517 224.018C119.119 223.655 118.92 223.179 118.92 222.591C118.92 222.102 119.053 221.676 119.317 221.312C119.584 220.946 119.942 220.662 120.391 220.46C120.842 220.256 121.347 220.153 121.903 220.153C122.466 220.153 122.966 220.254 123.403 220.456C123.841 220.655 124.188 220.928 124.443 221.274C124.702 221.621 124.838 222.014 124.852 222.455H123.83ZM127.221 231.455C127.05 231.455 126.898 231.44 126.765 231.412C126.631 231.386 126.539 231.361 126.488 231.335L126.743 230.449C126.988 230.511 127.203 230.534 127.391 230.517C127.578 230.5 127.745 230.416 127.89 230.266C128.037 230.118 128.172 229.878 128.294 229.545L128.482 229.034L126.061 222.455H127.152L128.959 227.67H129.027L130.834 222.455H131.925L129.147 229.955C129.022 230.293 128.867 230.572 128.682 230.794C128.498 231.018 128.283 231.185 128.039 231.293C127.797 231.401 127.525 231.455 127.221 231.455ZM134.258 225.062V229H133.252V222.455H134.224V223.477H134.309C134.463 223.145 134.696 222.878 135.008 222.676C135.321 222.472 135.724 222.369 136.218 222.369C136.662 222.369 137.049 222.46 137.382 222.642C137.714 222.821 137.973 223.094 138.157 223.46C138.342 223.824 138.434 224.284 138.434 224.841V229H137.429V224.909C137.429 224.395 137.295 223.994 137.028 223.707C136.761 223.418 136.395 223.273 135.929 223.273C135.608 223.273 135.321 223.342 135.068 223.482C134.818 223.621 134.62 223.824 134.475 224.091C134.331 224.358 134.258 224.682 134.258 225.062ZM142.931 229.136C142.317 229.136 141.789 228.991 141.346 228.702C140.903 228.412 140.562 228.013 140.323 227.504C140.085 226.996 139.965 226.415 139.965 225.761C139.965 225.097 140.087 224.51 140.332 224.001C140.579 223.49 140.923 223.091 141.363 222.804C141.806 222.514 142.323 222.369 142.914 222.369C143.374 222.369 143.789 222.455 144.158 222.625C144.528 222.795 144.83 223.034 145.066 223.341C145.302 223.648 145.448 224.006 145.505 224.415H144.499C144.423 224.116 144.252 223.852 143.988 223.622C143.727 223.389 143.374 223.273 142.931 223.273C142.539 223.273 142.195 223.375 141.9 223.58C141.607 223.781 141.379 224.067 141.214 224.436C141.052 224.803 140.971 225.233 140.971 225.727C140.971 226.233 141.05 226.673 141.21 227.048C141.371 227.423 141.599 227.714 141.891 227.922C142.187 228.129 142.533 228.233 142.931 228.233C143.192 228.233 143.43 228.188 143.643 228.097C143.856 228.006 144.036 227.875 144.184 227.705C144.332 227.534 144.437 227.33 144.499 227.091H145.505C145.448 227.477 145.308 227.825 145.083 228.135C144.862 228.442 144.567 228.686 144.201 228.868C143.837 229.047 143.414 229.136 142.931 229.136Z" fill="#858585"/>
<rect x="249.5" y="32.5" width="129" height="42" fill="#F5F5F5" stroke="black"/>
<path d="M264.761 60V45.4545H269.676C270.817 45.4545 271.75 45.6605 272.474 46.0724C273.204 46.4796 273.743 47.0312 274.094 47.7273C274.444 48.4233 274.619 49.1998 274.619 50.0568C274.619 50.9138 274.444 51.6927 274.094 52.3935C273.748 53.0942 273.213 53.6529 272.489 54.0696C271.764 54.4815 270.836 54.6875 269.705 54.6875H266.182V53.125H269.648C270.429 53.125 271.056 52.9901 271.53 52.7202C272.003 52.4503 272.347 52.0857 272.56 51.6264C272.777 51.1624 272.886 50.6392 272.886 50.0568C272.886 49.4744 272.777 48.9536 272.56 48.4943C272.347 48.035 272.001 47.6752 271.523 47.4148C271.045 47.1496 270.41 47.017 269.619 47.017H266.523V60H264.761ZM277.229 60V49.0909H278.849V50.7386H278.962C279.161 50.1989 279.521 49.7609 280.042 49.4247C280.563 49.0885 281.15 48.9205 281.803 48.9205C281.926 48.9205 282.08 48.9228 282.265 48.9276C282.45 48.9323 282.589 48.9394 282.684 48.9489V50.6534C282.627 50.6392 282.497 50.6179 282.293 50.5895C282.094 50.5563 281.884 50.5398 281.661 50.5398C281.131 50.5398 280.657 50.651 280.241 50.8736C279.829 51.0914 279.502 51.3944 279.261 51.7827C279.024 52.1662 278.906 52.6042 278.906 53.0966V60H277.229ZM288.771 60.2273C287.786 60.2273 286.922 59.9929 286.178 59.5241C285.44 59.0554 284.862 58.3996 284.445 57.5568C284.033 56.714 283.827 55.7292 283.827 54.6023C283.827 53.4659 284.033 52.474 284.445 51.6264C284.862 50.7789 285.44 50.1207 286.178 49.652C286.922 49.1832 287.786 48.9489 288.771 48.9489C289.755 48.9489 290.617 49.1832 291.356 49.652C292.099 50.1207 292.677 50.7789 293.089 51.6264C293.505 52.474 293.714 53.4659 293.714 54.6023C293.714 55.7292 293.505 56.714 293.089 57.5568C292.677 58.3996 292.099 59.0554 291.356 59.5241C290.617 59.9929 289.755 60.2273 288.771 60.2273ZM288.771 58.7216C289.519 58.7216 290.134 58.5298 290.617 58.1463C291.1 57.7628 291.458 57.2585 291.69 56.6335C291.922 56.0085 292.038 55.3314 292.038 54.6023C292.038 53.8731 291.922 53.1937 291.69 52.5639C291.458 51.9342 291.1 51.4252 290.617 51.0369C290.134 50.6487 289.519 50.4545 288.771 50.4545C288.022 50.4545 287.407 50.6487 286.924 51.0369C286.441 51.4252 286.084 51.9342 285.852 52.5639C285.62 53.1937 285.504 53.8731 285.504 54.6023C285.504 55.3314 285.62 56.0085 285.852 56.6335C286.084 57.2585 286.441 57.7628 286.924 58.1463C287.407 58.5298 288.022 58.7216 288.771 58.7216ZM296.272 49.0909H297.949V60.7955C297.949 61.4678 297.833 62.0502 297.6 62.5426C297.373 63.035 297.028 63.4162 296.564 63.6861C296.104 63.956 295.524 64.0909 294.824 64.0909C294.767 64.0909 294.71 64.0909 294.653 64.0909C294.596 64.0909 294.539 64.0909 294.483 64.0909V62.5284C294.539 62.5284 294.592 62.5284 294.639 62.5284C294.686 62.5284 294.738 62.5284 294.795 62.5284C295.306 62.5284 295.681 62.3769 295.917 62.0739C296.154 61.7756 296.272 61.3494 296.272 60.7955V49.0909ZM297.096 47.2727C296.77 47.2727 296.488 47.1615 296.251 46.9389C296.019 46.7164 295.903 46.4489 295.903 46.1364C295.903 45.8239 296.019 45.5563 296.251 45.3338C296.488 45.1113 296.77 45 297.096 45C297.423 45 297.702 45.1113 297.934 45.3338C298.171 45.5563 298.289 45.8239 298.289 46.1364C298.289 46.4489 298.171 46.7164 297.934 46.9389C297.702 47.1615 297.423 47.2727 297.096 47.2727ZM305.592 60.2273C304.541 60.2273 303.634 59.9953 302.872 59.5312C302.115 59.0625 301.53 58.4091 301.118 57.571C300.711 56.7282 300.507 55.7481 300.507 54.6307C300.507 53.5133 300.711 52.5284 301.118 51.6761C301.53 50.8191 302.103 50.1515 302.837 49.6733C303.575 49.1903 304.437 48.9489 305.422 48.9489C305.99 48.9489 306.551 49.0436 307.105 49.233C307.659 49.4223 308.163 49.7301 308.618 50.1562C309.072 50.5777 309.435 51.1364 309.705 51.8324C309.974 52.5284 310.109 53.3854 310.109 54.4034V55.1136H301.7V53.6648H308.405C308.405 53.0492 308.282 52.5 308.036 52.017C307.794 51.5341 307.448 51.1529 306.999 50.8736C306.554 50.5942 306.028 50.4545 305.422 50.4545C304.754 50.4545 304.177 50.6203 303.689 50.9517C303.206 51.2784 302.834 51.7045 302.574 52.2301C302.313 52.7557 302.183 53.3191 302.183 53.9205V54.8864C302.183 55.7102 302.325 56.4086 302.609 56.9815C302.898 57.5497 303.298 57.983 303.81 58.2812C304.321 58.5748 304.915 58.7216 305.592 58.7216C306.033 58.7216 306.43 58.66 306.786 58.5369C307.145 58.4091 307.455 58.2197 307.716 57.9688C307.976 57.7131 308.178 57.3958 308.32 57.017L309.939 57.4716C309.768 58.0208 309.482 58.5038 309.08 58.9205C308.677 59.3324 308.18 59.6544 307.588 59.8864C306.996 60.1136 306.331 60.2273 305.592 60.2273ZM317.091 60.2273C316.068 60.2273 315.188 59.9858 314.449 59.5028C313.71 59.0199 313.142 58.3546 312.744 57.5071C312.347 56.6596 312.148 55.6913 312.148 54.6023C312.148 53.4943 312.351 52.5166 312.759 51.669C313.17 50.8168 313.743 50.1515 314.477 49.6733C315.216 49.1903 316.078 48.9489 317.062 48.9489C317.83 48.9489 318.521 49.0909 319.136 49.375C319.752 49.6591 320.256 50.0568 320.649 50.5682C321.042 51.0795 321.286 51.6761 321.381 52.358H319.705C319.577 51.8608 319.293 51.4205 318.852 51.0369C318.417 50.6487 317.83 50.4545 317.091 50.4545C316.438 50.4545 315.865 50.625 315.372 50.9659C314.884 51.3021 314.503 51.7779 314.229 52.3935C313.959 53.0043 313.824 53.7216 313.824 54.5455C313.824 55.3883 313.956 56.1222 314.222 56.7472C314.491 57.3722 314.87 57.8575 315.358 58.2031C315.85 58.5488 316.428 58.7216 317.091 58.7216C317.527 58.7216 317.922 58.6458 318.277 58.4943C318.632 58.3428 318.933 58.125 319.179 57.8409C319.425 57.5568 319.6 57.2159 319.705 56.8182H321.381C321.286 57.4621 321.052 58.0421 320.678 58.5582C320.308 59.0696 319.818 59.4768 319.207 59.7798C318.601 60.0781 317.896 60.2273 317.091 60.2273ZM328.575 49.0909V50.5114H322.922V49.0909H328.575ZM324.57 46.4773H326.246V56.875C326.246 57.3485 326.314 57.7036 326.452 57.9403C326.594 58.1723 326.774 58.3286 326.991 58.4091C327.214 58.4848 327.448 58.5227 327.695 58.5227C327.879 58.5227 328.031 58.5133 328.149 58.4943C328.268 58.4706 328.362 58.4517 328.433 58.4375L328.774 59.9432C328.661 59.9858 328.502 60.0284 328.298 60.071C328.095 60.1184 327.837 60.142 327.524 60.142C327.051 60.142 326.587 60.0402 326.132 59.8366C325.682 59.633 325.308 59.3229 325.01 58.9062C324.716 58.4896 324.57 57.964 324.57 57.3295V46.4773Z" fill="black"/>
</svg>
