<svg width="1920" height="448" viewBox="0 0 1920 448" fill="none" xmlns="http://www.w3.org/2000/svg">
<path d="M539.7 94.9C564.6 94.9 589.5 94.9 614.4 94.8C617.3 94.8 617.9 96.5 618.5 98.6C625.8 124.7 633.2 150.8 640.6 176.9C650.4 211.8 660.3 246.6 670.1 281.5C670.3 282.1 670.3 282.8 671.2 283.3C673.6 274.9 676 266.6 678.3 258.3C693.5 205 708.6 151.6 723.7 98.3C724.4 95.7 725.6 94.7 728.3 94.8C751.8 94.9 775.2 94.8 798.7 94.9C802.7 94.9 802.9 95.2 801.6 99.2C793.1 125.4 784.6 151.6 776.2 177.9C755.7 241 735.3 304.3 715 367.5C713.9 370.9 712.5 372.2 708.8 372.2C684 372 659.2 372.1 634.4 372.1C628 372.1 629 372.9 627 366.6C598.3 277.9 569.7 189.2 541 100.5C540.6 99.3 540.2 98.2 539.8 97C539.7 96.3 539.7 95.6 539.7 94.9Z" fill="white"/>
<path d="M1753.5 191.4C1753.5 189.3 1753.5 188.1 1753.5 186.9C1753.5 157.8 1753.5 128.6 1753.5 99.5C1753.5 94.9 1753.6 94.9 1758.2 94.9C1777.3 94.9 1796.5 95 1815.6 94.8C1818.9 94.8 1820 95.8 1820 99.2C1819.9 188.7 1819.9 278.2 1819.9 367.7C1819.9 372.1 1819.9 372.1 1815.4 372.1C1796.2 372.1 1776.9 372 1757.7 372.2C1754.6 372.2 1753.3 371.3 1753.5 368.1C1753.7 364 1753.6 359.9 1753.6 354.8C1751.4 357 1750 358.8 1748.3 360.3C1735.8 371.5 1720.9 376.6 1704.2 377.6C1682.7 378.9 1663.2 373.6 1645.9 360.9C1625.6 346 1613.5 325.7 1608 301.5C1601.3 271.9 1604.1 243.3 1618.9 216.5C1633.9 189.4 1656.8 172.9 1687.9 169.2C1707.4 166.9 1726 169.9 1742.6 181.5C1746.3 184.1 1749.8 187.2 1753.5 191.4ZM1716.5 315.7C1728.4 315.4 1741.1 309.2 1748.7 294.7C1753.7 285.1 1754.7 274.8 1752.8 264.2C1750.1 249.2 1742.2 238 1727.4 233.1C1712 228 1697.2 229.6 1684.6 240.7C1673.8 250.3 1670.9 263 1671.7 277C1673 300.1 1689.3 315.7 1716.5 315.7Z" fill="white"/>
<path d="M937.8 191.3C937.8 186.5 938 182.4 937.7 178.5C937.5 175.2 938.5 174 942 174.1C961.3 174.3 980.7 174.2 1000 174.1C1003.2 174.1 1004.2 175.1 1004.2 178.3C1004.1 198.6 1004.1 219 1004.1 239.3C1004.1 281.7 1004.1 324 1004.1 366.4C1004.1 372.1 1004.1 372.1 998.2 372.1C979.4 372.1 960.6 372 941.8 372.2C938.6 372.2 937.4 371.3 937.6 368C937.8 363.9 937.7 359.8 937.7 355.2C935.1 357.6 933.1 359.6 930.8 361.5C919.1 371.5 905.4 376.1 890.2 377.4C875.5 378.6 861.3 376.7 847.8 370.9C822.5 360.1 805.6 341.1 796.4 315.6C784.1 281.6 785.7 248 803.2 216C818 188.9 841.1 172.7 872 169C891.5 166.7 910.1 169.8 926.7 181.4C930.6 184.1 934 187.3 937.8 191.3ZM900.8 315.7C912.6 315.5 925.3 309.3 932.9 294.8C937.9 285.2 938.9 274.9 937 264.3C934.4 249.3 926.5 238.1 911.7 233.1C896.3 228 881.5 229.5 868.9 240.6C858.1 250.2 855.1 262.9 855.9 276.8C857.3 300.1 873.5 315.6 900.8 315.7Z" fill="white"/>
<path d="M1508.1 297.7C1487 297.7 1465.9 297.7 1444.7 297.7C1440.2 297.7 1440 298 1442.3 302C1446 308.3 1451.1 313.3 1457.9 316C1473.7 322.3 1489.7 322.9 1505.6 316.3C1509.9 314.5 1513.9 312 1517.3 308.8C1518.9 307.3 1520.2 307.3 1522 308.6C1536.2 318.6 1550.4 328.5 1564.6 338.4C1566.9 340 1567.2 341.1 1565.2 343.3C1550.5 360.4 1531.7 370.6 1509.8 374.9C1480 380.7 1451.1 378.4 1423.9 364.1C1394.6 348.7 1377.8 323.9 1372.6 291.5C1368.3 264.7 1372.6 239.2 1387.1 215.9C1403.2 190.2 1426.8 175.4 1456.4 170.1C1477.9 166.3 1499 168.1 1519.1 177C1550.4 190.9 1569 215.4 1576.4 248.6C1579.6 263.1 1579.9 277.7 1577.1 292.3C1576.1 297.7 1576.1 297.7 1570.5 297.7C1549.7 297.7 1528.9 297.7 1508.1 297.7ZM1476.5 251.5C1487.9 251.5 1499.4 251.5 1510.8 251.5C1513.3 251.5 1514 250.9 1513 248.5C1510.6 242.4 1507.3 236.9 1502.2 232.7C1493.9 225.9 1484.1 223.9 1473.7 224.6C1457.8 225.7 1446.3 233.3 1440.1 248.4C1439 251.1 1439.7 251.6 1442.4 251.6C1453.8 251.5 1465.2 251.5 1476.5 251.5Z" fill="white"/>
<path d="M1276.5 354.3C1262.2 371.3 1243.5 377.8 1222.5 377.8C1185.2 377.8 1161.2 356.5 1152.4 323.3C1149.5 312.2 1148.7 300.9 1148.6 289.6C1148.5 252.9 1148.6 216.2 1148.6 179.5C1148.6 174.1 1148.6 174.1 1153.9 174.1C1172.7 174.1 1191.5 174.1 1210.3 174.1C1215.3 174.1 1215.3 174.1 1215.3 179C1215.3 213.2 1215.3 247.5 1215.3 281.7C1215.3 286.1 1215.3 290.6 1216.4 294.9C1219.6 306.7 1228.9 314.1 1241.4 314.8C1245.4 315 1249.4 314.8 1253.3 313.9C1266 311 1274.5 300.8 1275.8 286.9C1276.3 282 1276.4 277.1 1276.4 272.3C1276.4 241.1 1276.4 209.8 1276.4 178.6C1276.4 174 1276.4 174 1281 174C1300.1 174 1319.3 174.1 1338.4 173.9C1341.7 173.9 1342.8 174.8 1342.8 178.2C1342.7 241.4 1342.7 304.5 1342.8 367.7C1342.8 371.1 1341.7 372 1338.4 372C1319.2 371.9 1299.9 371.9 1280.7 372C1277.4 372 1276.2 371.1 1276.4 367.7C1276.7 363.3 1276.5 358.8 1276.5 354.3Z" fill="white"/>
<path d="M1110.2 227.4C1110.2 273.9 1110.2 320.4 1110.2 366.8C1110.2 372.1 1110.2 372.1 1104.9 372.1C1086.1 372.1 1067.3 372.1 1048.5 372.1C1043.8 372.1 1043.8 372.1 1043.8 367.6C1043.8 274.3 1043.8 181 1043.8 87.7C1043.8 83.2 1044 83 1048.5 83C1067.5 83 1086.5 83 1105.5 83C1110.1 83 1110.2 83.1 1110.2 87.6C1110.2 134.2 1110.2 180.8 1110.2 227.4Z" fill="white"/>
<path d="M240.1 123.6C240.2 122.1 240.3 120.7 240.3 119.2C240.3 81.2 209.5 50.4 171.5 50.4C133.5 50.4 102.7 81.2 102.7 119.2H240.2V123.6H240.1Z" fill="#FF491D"/>
<path d="M171.4 188C207.9 188 237.8 159.6 240.1 123.6V119.2H102.6C102.6 157.2 133.4 188 171.4 188Z" fill="#FF947A"/>
<path d="M380.6 50.3C342.6 50.3 311.8 81.1 311.8 119.1H449.5C449.5 81.2 418.7 50.3 380.6 50.3Z" fill="#0E65DA"/>
<path d="M380.6 188C418.6 188 449.4 157.2 449.4 119.2H311.8C311.8 157.2 342.6 188 380.6 188Z" fill="#7BAFF4"/>
<path d="M311.8 210.1V224.2C311.8 244 295.7 260 276 260C256.2 260 240.2 243.9 240.2 224.2V210.1H102.5V224.2C102.5 319.9 180.3 397.7 276 397.7C371.7 397.7 449.5 319.9 449.5 224.2V210.1H311.8Z" fill="#FFD00D"/>
</svg>
