<?xml version="1.0" encoding="utf-8"?>
<!-- Generator: Adobe Illustrator 25.4.1, SVG Export Plug-In . SVG Version: 6.00 Build 0)  -->
<svg version="1.1" id="Layer_1" xmlns="http://www.w3.org/2000/svg" xmlns:xlink="http://www.w3.org/1999/xlink" x="0px" y="0px"
	 viewBox="0 0 1920 448" style="enable-background:new 0 0 1920 448;" xml:space="preserve">
<style type="text/css">
	.st0{fill:#2C3133;}
	.st1{fill:#FF491D;}
	.st2{fill:#FF947A;}
	.st3{fill:#0E65DA;}
	.st4{fill:#7BAFF4;}
	.st5{fill:#FFD00D;}
</style>
<g>
	<g id="WVoJsy_00000089539395835958383950000003897022033739824777_">
		<g>
			<path class="st0" d="M539.7,94.9c24.9,0,49.8,0,74.7-0.1c2.9,0,3.5,1.7,4.1,3.8c7.3,26.1,14.7,52.2,22.1,78.3
				c9.8,34.9,19.7,69.7,29.5,104.6c0.2,0.6,0.2,1.3,1.1,1.8c2.4-8.4,4.8-16.7,7.1-25c15.2-53.3,30.3-106.7,45.4-160
				c0.7-2.6,1.9-3.6,4.6-3.5c23.5,0.1,46.9,0,70.4,0.1c4,0,4.2,0.3,2.9,4.3c-8.5,26.2-17,52.4-25.4,78.7
				C755.7,241,735.3,304.3,715,367.5c-1.1,3.4-2.5,4.7-6.2,4.7c-24.8-0.2-49.6-0.1-74.4-0.1c-6.4,0-5.4,0.8-7.4-5.5
				c-28.7-88.7-57.3-177.4-86-266.1c-0.4-1.2-0.8-2.3-1.2-3.5C539.7,96.3,539.7,95.6,539.7,94.9z"/>
			<path class="st0" d="M1753.5,191.4c0-2.1,0-3.3,0-4.5c0-29.1,0-58.3,0-87.4c0-4.6,0.1-4.6,4.7-4.6c19.1,0,38.3,0.1,57.4-0.1
				c3.3,0,4.4,1,4.4,4.4c-0.1,89.5-0.1,179-0.1,268.5c0,4.4,0,4.4-4.5,4.4c-19.2,0-38.5-0.1-57.7,0.1c-3.1,0-4.4-0.9-4.2-4.1
				c0.2-4.1,0.1-8.2,0.1-13.3c-2.2,2.2-3.6,4-5.3,5.5c-12.5,11.2-27.4,16.3-44.1,17.3c-21.5,1.3-41-4-58.3-16.7
				c-20.3-14.9-32.4-35.2-37.9-59.4c-6.7-29.6-3.9-58.2,10.9-85c15-27.1,37.9-43.6,69-47.3c19.5-2.3,38.1,0.7,54.7,12.3
				C1746.3,184.1,1749.8,187.2,1753.5,191.4z M1716.5,315.7c11.9-0.3,24.6-6.5,32.2-21c5-9.6,6-19.9,4.1-30.5
				c-2.7-15-10.6-26.2-25.4-31.1c-15.4-5.1-30.2-3.5-42.8,7.6c-10.8,9.6-13.7,22.3-12.9,36.3C1673,300.1,1689.3,315.7,1716.5,315.7z
				"/>
			<path class="st0" d="M937.8,191.3c0-4.8,0.2-8.9-0.1-12.8c-0.2-3.3,0.8-4.5,4.3-4.4c19.3,0.2,38.7,0.1,58,0c3.2,0,4.2,1,4.2,4.2
				c-0.1,20.3-0.1,40.7-0.1,61c0,42.4,0,84.7,0,127.1c0,5.7,0,5.7-5.9,5.7c-18.8,0-37.6-0.1-56.4,0.1c-3.2,0-4.4-0.9-4.2-4.2
				c0.2-4.1,0.1-8.2,0.1-12.8c-2.6,2.4-4.6,4.4-6.9,6.3c-11.7,10-25.4,14.6-40.6,15.9c-14.7,1.2-28.9-0.7-42.4-6.5
				c-25.3-10.8-42.2-29.8-51.4-55.3c-12.3-34-10.7-67.6,6.8-99.6c14.8-27.1,37.9-43.3,68.8-47c19.5-2.3,38.1,0.8,54.7,12.4
				C930.6,184.1,934,187.3,937.8,191.3z M900.8,315.7c11.8-0.2,24.5-6.4,32.1-20.9c5-9.6,6-19.9,4.1-30.5
				c-2.6-15-10.5-26.2-25.3-31.2c-15.4-5.1-30.2-3.6-42.8,7.5c-10.8,9.6-13.8,22.3-13,36.2C857.3,300.1,873.5,315.6,900.8,315.7z"/>
			<path class="st0" d="M1508.1,297.7c-21.1,0-42.2,0-63.4,0c-4.5,0-4.7,0.3-2.4,4.3c3.7,6.3,8.8,11.3,15.6,14
				c15.8,6.3,31.8,6.9,47.7,0.3c4.3-1.8,8.3-4.3,11.7-7.5c1.6-1.5,2.9-1.5,4.7-0.2c14.2,10,28.4,19.9,42.6,29.8
				c2.3,1.6,2.6,2.7,0.6,4.9c-14.7,17.1-33.5,27.3-55.4,31.6c-29.8,5.8-58.7,3.5-85.9-10.8c-29.3-15.4-46.1-40.2-51.3-72.6
				c-4.3-26.8,0-52.3,14.5-75.6c16.1-25.7,39.7-40.5,69.3-45.8c21.5-3.8,42.6-2,62.7,6.9c31.3,13.9,49.9,38.4,57.3,71.6
				c3.2,14.5,3.5,29.1,0.7,43.7c-1,5.4-1,5.4-6.6,5.4C1549.7,297.7,1528.9,297.7,1508.1,297.7z M1476.5,251.5c11.4,0,22.9,0,34.3,0
				c2.5,0,3.2-0.6,2.2-3c-2.4-6.1-5.7-11.6-10.8-15.8c-8.3-6.8-18.1-8.8-28.5-8.1c-15.9,1.1-27.4,8.7-33.6,23.8
				c-1.1,2.7-0.4,3.2,2.3,3.2C1453.8,251.5,1465.2,251.5,1476.5,251.5z"/>
			<path class="st0" d="M1276.5,354.3c-14.3,17-33,23.5-54,23.5c-37.3,0-61.3-21.3-70.1-54.5c-2.9-11.1-3.7-22.4-3.8-33.7
				c-0.1-36.7,0-73.4,0-110.1c0-5.4,0-5.4,5.3-5.4c18.8,0,37.6,0,56.4,0c5,0,5,0,5,4.9c0,34.2,0,68.5,0,102.7c0,4.4,0,8.9,1.1,13.2
				c3.2,11.8,12.5,19.2,25,19.9c4,0.2,8,0,11.9-0.9c12.7-2.9,21.2-13.1,22.5-27c0.5-4.9,0.6-9.8,0.6-14.6c0-31.2,0-62.5,0-93.7
				c0-4.6,0-4.6,4.6-4.6c19.1,0,38.3,0.1,57.4-0.1c3.3,0,4.4,0.9,4.4,4.3c-0.1,63.2-0.1,126.3,0,189.5c0,3.4-1.1,4.3-4.4,4.3
				c-19.2-0.1-38.5-0.1-57.7,0c-3.3,0-4.5-0.9-4.3-4.3C1276.7,363.3,1276.5,358.8,1276.5,354.3z"/>
			<path class="st0" d="M1110.2,227.4c0,46.5,0,93,0,139.4c0,5.3,0,5.3-5.3,5.3c-18.8,0-37.6,0-56.4,0c-4.7,0-4.7,0-4.7-4.5
				c0-93.3,0-186.6,0-279.9c0-4.5,0.2-4.7,4.7-4.7c19,0,38,0,57,0c4.6,0,4.7,0.1,4.7,4.6C1110.2,134.2,1110.2,180.8,1110.2,227.4z"
				/>
		</g>
	</g>
	<g>
		<path class="st1" d="M240.1,123.6c0.1-1.5,0.2-2.9,0.2-4.4c0-38-30.8-68.8-68.8-68.8c-38,0-68.8,30.8-68.8,68.8h137.5V123.6z"/>
		<path class="st2" d="M171.4,188c36.5,0,66.4-28.4,68.7-64.4v-4.4H102.6C102.6,157.2,133.4,188,171.4,188z"/>
	</g>
	<g>
		<path class="st3" d="M380.6,50.3c-38,0-68.8,30.8-68.8,68.8h137.7C449.5,81.2,418.7,50.3,380.6,50.3z"/>
		<path class="st4" d="M380.6,188c38,0,68.8-30.8,68.8-68.8H311.8C311.8,157.2,342.6,188,380.6,188z"/>
	</g>
	<path class="st5" d="M311.8,210.1v14.1c0,19.8-16.1,35.8-35.8,35.8c-19.8,0-35.8-16.1-35.8-35.8v-14.1H102.5v14.1
		c0,95.7,77.8,173.5,173.5,173.5c95.7,0,173.5-77.8,173.5-173.5v-14.1H311.8z"/>
</g>
</svg>
